<?xml version="1.0" encoding="utf-8"?>
<!-- Generator: Adobe Illustrator 27.0.0, SVG Export Plug-In . SVG Version: 6.00 Build 0)  -->
<svg version="1.1" id="Layer_1" xmlns="http://www.w3.org/2000/svg" xmlns:xlink="http://www.w3.org/1999/xlink" x="0px" y="0px"
	 viewBox="0 0 60 20.3" style="enable-background:new 0 0 60 20.3;" xml:space="preserve">
<style type="text/css">
	.st0{fill-rule:evenodd;clip-rule:evenodd;fill:#7B47C9;}
</style>
<path id="Fill-1" class="st0" d="M30.4,0.2c-0.5,0.2-1,0.5-1.4,0.8l0,0c-0.4,0.4-0.8,0.8-1,1.4l0,0c-0.1,0.1-0.1,0.3-0.2,0.4l0,0
	c-0.1,0.1-0.1,0.3-0.1,0.4l0,0c0,0.1-0.1,0.3-0.1,0.4l0,0c0,0.1-0.1,0.3-0.1,0.4l0,0c-0.1,0.3-0.1,0.6-0.2,0.8l0,0
	c0,0.1,0,0.3,0,0.4l0,0c0,0.1,0,0.3,0,0.4l0,0c0,0.2,0,0.3,0,0.5l0,0c0,0.2,0,0.3,0.1,0.5l0,0c0,0.2,0.1,0.3,0.1,0.5l0,0l0.1,0.2
	c0,0.1,0.1,0.1,0.1,0.2l0,0l0.1,0.2c0,0.1,0.1,0.1,0.1,0.2l0,0c0.1,0.1,0.1,0.3,0.2,0.4l0,0c0.1,0.1,0.2,0.3,0.3,0.4l0,0
	c0.1,0.1,0.2,0.2,0.3,0.4l0,0c0.4,0.5,0.9,0.9,1.4,1.2l0,0c0.2,0.1,0.3,0.2,0.5,0.3l0,0c-0.2,0.1-0.4,0.3-0.6,0.4l0,0
	c-1.1,0.7-2.3,1.4-3.6,2l0,0c-2.5,1.3-5.4,2.5-8.6,3.1l0,0c-1.6,0.3-3.2,0.4-4.9,0.3l0,0l-0.3,0l-0.3,0c-0.2,0-0.4,0-0.6,0l0,0
	c-0.4,0-0.9-0.1-1.3-0.1l0,0c-0.9-0.1-1.7-0.2-2.6-0.5l0,0c-1.2-0.3-2.4-0.7-3.4-1.4l0,0c-1-0.6-1.9-1.4-2.4-2.4l0,0
	c-0.3-0.5-0.4-1-0.5-1.6l0,0C1.3,10,1.3,9.5,1.4,9l0,0c0.1-0.5,0.2-1,0.5-1.5l0,0C2.1,7,2.4,6.5,2.7,6.1l0,0
	c0.2-0.2,0.4-0.4,0.5-0.6l0,0c0.1-0.1,0.2-0.2,0.3-0.3l0,0C3.6,5.2,3.7,5.1,3.8,5l0,0C4,4.9,4.1,4.8,4.2,4.7l0,0
	c0.1-0.1,0.2-0.2,0.3-0.2l0,0c0.2-0.2,0.4-0.3,0.7-0.4l0,0C6,3.6,7,3.2,7.9,2.9l0,0c1.9-0.5,3.8-0.5,5.4,0.1l0,0
	c0.8,0.3,1.4,0.7,2,1.2l0,0c0.5,0.5,0.9,1.1,1,1.8l0,0c0.1,0.6,0,1.2-0.3,1.8l0,0c-0.3,0.5-0.6,0.9-0.9,1.2l0,0
	c-0.7,0.6-1.3,1-1.8,1.2l0,0C13.7,10,14,9.5,14,9l0,0c0-0.8-0.6-1.4-1.4-1.4l0,0c-0.8,0-1.4,0.6-1.4,1.4l0,0c0,0.8,0.6,1.4,1.4,1.4
	l0,0c0.1,0,0.2,0,0.4,0l0,0c-0.1,0-0.2,0.1-0.3,0.1l0,0c-0.1,0-0.2,0.1-0.2,0.1l0,0c0,0,0.1,0,0.2,0l0,0c0.1,0,0.3-0.1,0.6-0.2l0,0
	c0.5-0.2,1.2-0.5,2-1.1l0,0C15.6,8.9,16,8.5,16.3,8l0,0c0.3-0.5,0.5-1.2,0.4-2l0,0c-0.1-0.8-0.5-1.5-1-2.1l0,0
	c-0.6-0.6-1.3-1.1-2.1-1.5l0,0c-0.8-0.4-1.8-0.6-2.8-0.6l0,0c-1-0.1-2,0-3.1,0.3l0,0c-1,0.2-2.1,0.6-3.1,1.1l0,0
	C4.4,3.3,4.1,3.4,3.9,3.6l0,0C3.7,3.6,3.6,3.7,3.5,3.8l0,0C3.4,3.9,3.2,4,3.1,4.1l0,0C3,4.2,2.9,4.3,2.8,4.4l0,0
	C2.7,4.5,2.5,4.5,2.4,4.6l0,0C2.2,4.9,2,5.1,1.8,5.3l0,0C1.4,5.8,1,6.3,0.7,6.9l0,0C0.4,7.4,0.2,8.1,0.1,8.8l0,0
	c-0.1,0.7-0.1,1.4,0,2l0,0c0.1,0.7,0.3,1.3,0.6,2l0,0c0.6,1.3,1.7,2.3,2.8,3l0,0C4,16.1,4.5,16.3,5,16.5l0,0c0.9,0.7,1.9,1.4,3.1,2
	l0,0C8.5,18.7,9,19,9.5,19.1l0,0c0.1,0,0.2,0.1,0.4,0.1l0,0c0.1,0,0.3,0.1,0.4,0.1l0,0c0.1,0,0.3,0.1,0.4,0.1l0,0
	c0.1,0,0.3,0.1,0.4,0.1l0,0c0.3,0.1,0.5,0.1,0.8,0.2l0,0c0.3,0.1,0.5,0.1,0.8,0.1l0,0c0.1,0,0.3,0,0.4,0.1l0,0c0.1,0,0.3,0,0.4,0.1
	l0,0c0.3,0,0.6,0.1,0.8,0.1l0,0c1.6,0.1,3.1,0.1,4.5-0.1l0,0c1.4-0.2,2.7-0.5,3.9-0.9l0,0c0.1,0,0.3-0.1,0.4-0.1l0,0
	c0.1-0.1,0.3-0.1,0.4-0.2l0,0c0.3-0.1,0.6-0.2,0.8-0.3l0,0c0.3-0.1,0.5-0.2,0.8-0.3l0,0c0.1-0.1,0.2-0.1,0.4-0.2l0,0
	c0.1-0.1,0.2-0.1,0.3-0.2l0,0c0.2-0.1,0.4-0.2,0.6-0.3l0,0c0.2-0.1,0.4-0.2,0.6-0.3l0,0c0.2-0.1,0.4-0.2,0.5-0.3l0,0
	c0.2-0.1,0.3-0.2,0.5-0.3l0,0c0.3-0.2,0.7-0.3,1-0.5l0,0c0.2-0.1,0.4-0.2,0.6-0.3l0,0c0,0,0.1-0.1,0.2-0.1l0,0c0,0,0.1-0.1,0.2-0.1
	l0,0c0.1-0.1,0.2-0.1,0.3-0.2l0,0c0.4-0.3,0.9-0.5,1.3-0.8l0,0c0.5-0.3,1-0.6,1.5-1l0,0c0.6-0.4,1.3-0.9,2-1.4l0,0
	c0.1,0,0.3,0.1,0.4,0.1l0,0c1.3,0.2,2.6,0.3,3.9,0.2l0,0c0.3,0,0.7,0,1-0.1l0,0c0.3,0,0.7,0,1-0.1l0,0c0.7-0.1,1.3-0.1,2-0.2l0,0
	c1.8-0.2,3.6-0.5,5.3-0.9l0,0c0.9-0.2,1.7-0.5,2.6-0.8l0,0c0.8-0.3,1.6-0.7,2.4-1.2l0,0c0.4-0.3,0.7-0.6,1-0.9l0,0
	c0.3-0.4,0.6-0.8,0.7-1.3l0,0c0.1-0.5,0.2-1,0.1-1.5l0,0c0-0.2-0.1-0.4-0.1-0.7l0,0c0.3,0.1,0.6,0.2,0.9,0.4l0,0
	c0.8,0.4,1.5,1,2,1.6l0,0c0.2,0.3,0.5,0.6,0.6,0.9l0,0c0,0,0,0.1,0.1,0.1l0,0c0,0,0,0.1,0.1,0.1l0,0c0,0.1,0.1,0.1,0.1,0.2l0,0
	c0.1,0.1,0.1,0.3,0.2,0.4l0,0c0,0.1,0,0.1,0.1,0.2l0,0c0,0.1,0,0.1,0,0.2l0,0c0,0.1,0,0.3,0.1,0.5l0,0c0,0.3,0.1,0.7,0,1.1l0,0
	c0,0.8-0.2,1.6-0.5,2.5l0,0c-0.3,0.9-0.9,1.8-1.6,2.5l0,0c-0.1,0.1-0.2,0.2-0.3,0.3l0,0c-0.1,0-0.1,0.1-0.1,0.1l0,0
	c-0.1,0-0.1,0.1-0.2,0.1l0,0c-0.1,0.1-0.2,0.2-0.3,0.3l0,0c-0.1,0.1-0.2,0.2-0.3,0.3l0,0c-0.1,0.1-0.2,0.2-0.4,0.2l0,0l-0.2,0.1
	c-0.1,0-0.1,0.1-0.2,0.1l0,0c-0.1,0.1-0.3,0.1-0.4,0.2l0,0c-0.1,0-0.1,0.1-0.2,0.1l0,0l-0.2,0.1c-0.8,0.4-1.6,0.7-2.4,1l0,0
	c-0.8,0.3-1.6,0.5-2.3,0.6l0,0c-0.8,0.2-1.5,0.3-2.2,0.4l0,0c-0.7,0.1-1.3,0.1-1.9,0.2l0,0c-1.2,0.1-2.1,0.1-2.8,0.1l0,0
	c-0.2,0-0.3,0-0.4,0l0,0c-0.1,0-0.2,0-0.3,0l0,0c-0.2,0-0.3,0-0.3,0l0,0c0,0,0.1,0,0.3,0l0,0c0.1,0,0.2,0,0.3,0.1l0,0
	c0.1,0,0.3,0,0.4,0.1l0,0c0.7,0.1,1.6,0.2,2.8,0.2l0,0c0.6,0,1.3,0,2,0l0,0c0.7,0,1.5-0.1,2.2-0.2l0,0c0.8-0.1,1.6-0.3,2.4-0.5l0,0
	c0.8-0.2,1.7-0.6,2.5-1l0,0l0.2-0.1c0.1,0,0.1-0.1,0.2-0.1l0,0c0.1-0.1,0.3-0.2,0.4-0.2l0,0c0.1,0,0.1-0.1,0.2-0.1l0,0
	c0.1,0,0.1-0.1,0.2-0.1l0,0c0.1-0.1,0.3-0.2,0.4-0.3l0,0c0.1-0.1,0.2-0.2,0.4-0.3l0,0c0.1-0.1,0.2-0.2,0.3-0.3l0,0
	c0.1-0.1,0.1-0.1,0.2-0.2l0,0c0.1,0,0.1-0.1,0.2-0.2l0,0c0.1-0.1,0.2-0.2,0.3-0.3l0,0c0.8-0.9,1.3-1.9,1.6-2.9l0,0
	c0-0.1,0-0.1,0-0.2l0,0c0-0.1,0-0.1,0-0.2l0,0c0-0.1,0.1-0.2,0.1-0.4l0,0c0-0.2,0.1-0.5,0.1-0.7l0,0c0-0.5,0-0.9,0-1.3l0,0
	c0-0.4-0.1-0.8-0.2-1.1l0,0c0-0.2-0.1-0.3-0.1-0.5l0,0c0-0.1,0-0.1-0.1-0.2l0,0c0-0.1-0.1-0.1-0.1-0.2l0,0c0-0.1-0.1-0.3-0.1-0.4
	l0,0c0-0.1-0.1-0.2-0.1-0.2l0,0c0,0,0-0.1,0-0.1l0,0c0,0,0-0.1-0.1-0.1l0,0c-0.1-0.3-0.3-0.7-0.6-1l0,0c-0.5-0.7-1.2-1.3-2-1.9l0,0
	c-0.5-0.3-1-0.5-1.5-0.7l0,0c-0.2-0.3-0.3-0.6-0.5-0.9l0,0c-0.3-0.3-0.6-0.7-0.9-0.9l0,0c-0.3-0.3-0.7-0.5-1.1-0.6l0,0
	c-0.4-0.2-0.8-0.3-1.2-0.3l0,0c-0.8-0.1-1.5-0.1-2.3,0l0,0c-0.7,0.1-1.4,0.2-2.1,0.4l0,0c-1.3,0.4-2.5,0.9-3.5,1.4l0,0
	c-2.1,1-3.9,2.1-5.3,2.9l0,0c-1.5,0.8-3.2,1.8-5.2,3.1l0,0c-0.4,0.3-0.8,0.5-1.3,0.8l0,0c-0.4-0.2-0.7-0.3-1-0.5l0,0
	c-0.5-0.3-0.9-0.6-1.2-1l0,0c-0.1-0.1-0.2-0.2-0.2-0.3l0,0c-0.1-0.1-0.1-0.2-0.2-0.3l0,0C29,7.7,29,7.6,28.9,7.5l0,0
	c0-0.1-0.1-0.1-0.1-0.2l0,0l-0.1-0.2c0-0.1-0.1-0.1-0.1-0.2l0,0l-0.1-0.2c0-0.1-0.1-0.2-0.1-0.4l0,0c0-0.1-0.1-0.2-0.1-0.4l0,0
	c0-0.1,0-0.2,0-0.4l0,0c0-0.1,0-0.2,0-0.4l0,0c0-0.1,0-0.2,0-0.4l0,0c0-0.2,0-0.5,0.1-0.7l0,0c0-0.1,0-0.2,0.1-0.4l0,0
	c0-0.1,0.1-0.2,0.1-0.4l0,0c0-0.1,0.1-0.2,0.1-0.3l0,0c0-0.1,0.1-0.2,0.1-0.3l0,0C29.3,2,30,1.4,30.7,1l0,0c0.8-0.3,1.7-0.3,2.4,0
	l0,0c0.4,0.1,0.7,0.4,0.9,0.6l0,0c0.2,0.3,0.3,0.6,0.4,1l0,0c0.1,0.7-0.2,1.4-0.5,2l0,0c0,0.1-0.1,0.2-0.1,0.2l0,0
	c0,0.1-0.1,0.1-0.1,0.2l0,0c0,0.1-0.1,0.1-0.1,0.2l0,0l-0.1,0.1l-0.1,0.1c-0.2,0.2-0.4,0.4-0.6,0.5l0,0C32.5,6.1,32.3,6,32,6l0,0
	c-0.2-0.1-0.4-0.2-0.6-0.4l0,0c-0.2-0.2-0.3-0.4-0.4-0.6l0,0C31,4.8,31,4.6,31,4.4l0,0c0,0,0,0,0,0l0,0c0.1,0.5,0.5,0.8,1,0.8l0,0
	c0.6,0,1-0.5,1-1l0,0c0-0.6-0.5-1-1-1l0,0c-0.4,0-0.7,0.2-0.9,0.6l0,0c-0.1,0.2-0.2,0.4-0.2,0.7l0,0c0,0.2,0,0.4,0.1,0.6l0,0
	c0.1,0.2,0.2,0.4,0.3,0.6l0,0c0.2,0.2,0.4,0.4,0.6,0.5l0,0c0.3,0.1,0.6,0.2,0.9,0l0,0c0.3-0.1,0.6-0.3,0.8-0.6l0,0l0.1-0.1l0.1-0.1
	C33.9,5.4,34,5.3,34,5.3l0,0c0.1-0.1,0.2-0.3,0.3-0.5l0,0c0.1-0.2,0.2-0.3,0.2-0.5l0,0c0-0.1,0.1-0.2,0.1-0.3l0,0
	c0-0.1,0.1-0.2,0.1-0.3l0,0C34.9,3.4,35,3,34.9,2.6l0,0c0-0.4-0.2-0.9-0.4-1.3l0,0c-0.3-0.4-0.7-0.7-1.1-0.9l0,0
	c-0.5-0.2-1-0.3-1.6-0.3l0,0C31.4,0,30.9,0.1,30.4,0.2 M34,10.6c-0.3-0.1-0.6-0.2-0.8-0.2l0,0c-0.1,0-0.3-0.1-0.4-0.1l0,0
	c0.3-0.2,0.5-0.4,0.8-0.6l0,0c1.9-1.3,3.6-2.5,5-3.4l0,0c1.4-0.8,3.2-1.7,5.4-2.6l0,0c1.1-0.4,2.2-0.8,3.5-1.1l0,0
	c0.6-0.1,1.3-0.3,1.9-0.3l0,0c0.7-0.1,1.3,0,2,0.1l0,0c0.6,0.1,1.3,0.4,1.7,0.8l0,0c0.1,0.1,0.2,0.2,0.3,0.3l0,0c0,0-0.1,0-0.1-0.1
	l0,0c-0.3-0.2-0.8-0.5-1.4-0.6l0,0c-0.3-0.1-0.6-0.1-1-0.1l0,0c-0.3,0-0.7,0-1.1,0.1l0,0c-1.5,0.2-3.2,0.9-4.9,1.9l0,0
	c-0.4,0.2-0.9,0.5-1.3,0.7l0,0C43,5.7,42.6,6,42.1,6.3l0,0c-0.1,0.1-0.2,0.1-0.3,0.2l0,0c-0.1,0.1-0.2,0.2-0.3,0.2l0,0
	C41.2,6.8,41,7,40.8,7.1l0,0c-0.2,0.2-0.5,0.3-0.7,0.5l0,0c-0.2,0.2-0.5,0.3-0.7,0.5l0,0c-1.4,1-2.6,1.9-3.9,2.9l0,0
	C35,10.9,34.5,10.8,34,10.6 M36.7,11.1c1-0.7,2.1-1.5,3.2-2.3l0,0c1.8-1.3,3.6-2.5,5.2-3.5l0,0C46,4.8,46.8,4.4,47.6,4l0,0
	c0.4-0.2,0.8-0.3,1.1-0.5l0,0c0.4-0.1,0.7-0.2,1.1-0.3l0,0c0.4-0.1,0.7-0.1,1-0.2l0,0c0.3,0,0.6,0,0.9,0l0,0c0.6,0.1,1,0.2,1.4,0.4
	l0,0c0.2,0.1,0.3,0.2,0.4,0.3l0,0c0,0,0,0,0,0l0,0c0,0,0,0,0,0l0,0c-0.1,0-0.3,0-0.4,0l0,0c-0.2,0-0.3,0-0.5,0l0,0
	c-0.2,0-0.3,0-0.5,0l0,0c-0.2,0-0.3,0-0.5,0l0,0c-0.6,0.1-1.2,0.2-1.8,0.5l0,0c-0.9,0.3-1.7,0.8-2.4,1.2l0,0c-0.7,0.5-1.4,1-2,1.4
	l0,0c-0.6,0.5-1.2,0.9-1.8,1.4l0,0c-0.6,0.4-1.1,0.8-1.6,1.1l0,0c-1,0.6-1.8,1-2.5,1.3l0,0c-0.2,0.1-0.3,0.1-0.4,0.1l0,0
	c-0.1,0-0.2,0.1-0.3,0.1l0,0c-0.2,0-0.3,0.1-0.3,0.1l0,0c0,0,0.1,0,0.3,0l0,0c0.1,0,0.2,0,0.3-0.1l0,0c0.1,0,0.3-0.1,0.4-0.1l0,0
	c0.6-0.2,1.6-0.5,2.6-1l0,0c0.5-0.3,1.1-0.6,1.7-1l0,0c0.6-0.4,1.2-0.8,1.8-1.2l0,0c0.6-0.4,1.3-0.9,2-1.3l0,0
	c0.7-0.4,1.5-0.8,2.3-1.1l0,0c1.1-0.4,2.2-0.6,3.3-0.5l0,0c0.2,0,0.4,0,0.6,0.1l0,0c0,0.1,0,0.1,0.1,0.2l0,0
	c0.3,0.6,0.3,1.3,0.1,1.9l0,0c-0.2,0.6-0.7,1.1-1.3,1.5l0,0c-0.6,0.4-1.3,0.8-2.1,1l0,0c-0.8,0.3-1.6,0.5-2.4,0.7l0,0
	c-1.7,0.4-3.4,0.6-5.2,0.8l0,0c-0.7,0.1-1.3,0.1-2,0.2l0,0c-0.3,0-0.7,0-1,0.1l0,0c-0.3,0-0.6,0-0.9,0.1l0,0c-0.3,0-0.6,0-0.8,0l0,0
	C38,11.2,37.3,11.1,36.7,11.1 M18.1,17.6c1.7-0.3,3.3-0.8,4.7-1.4l0,0c1.5-0.6,2.8-1.3,4.1-2l0,0c1.3-0.7,2.4-1.5,3.5-2.2l0,0
	c0.3-0.2,0.7-0.5,1-0.7l0,0c0.1,0.1,0.2,0.1,0.4,0.2l0,0c0.3,0.1,0.6,0.2,0.9,0.3l0,0c0.3,0.1,0.6,0.2,0.9,0.3l0,0
	c0.2,0,0.3,0.1,0.5,0.1l0,0c-0.5,0.4-0.9,0.7-1.4,1.1l0,0c-0.5,0.4-1,0.7-1.4,1.1l0,0c-0.4,0.3-0.9,0.6-1.3,0.9l0,0
	c-0.1,0.1-0.2,0.1-0.3,0.2l0,0c0,0-0.1,0.1-0.1,0.1l0,0c0,0-0.1,0.1-0.1,0.1l0,0c-0.2,0.1-0.4,0.3-0.5,0.4l0,0
	c-0.3,0.2-0.7,0.4-1,0.6l0,0c-0.2,0.1-0.3,0.2-0.5,0.2l0,0c-0.2,0.1-0.4,0.2-0.6,0.3l0,0c-0.2,0.1-0.4,0.2-0.6,0.3l0,0
	c-0.2,0.1-0.4,0.2-0.7,0.3l0,0c-0.1,0-0.2,0.1-0.3,0.1l0,0c-0.1,0-0.2,0.1-0.4,0.1l0,0c-0.2,0.1-0.5,0.2-0.8,0.3l0,0
	c-0.3,0.1-0.5,0.2-0.8,0.3l0,0c-0.1,0-0.3,0.1-0.4,0.1l0,0c-0.1,0-0.3,0.1-0.4,0.1l0,0c-1.2,0.3-2.5,0.5-3.8,0.7l0,0
	c-1.4,0.1-2.8,0.1-4.3,0l0,0c-0.3,0-0.5-0.1-0.8-0.1l0,0c-0.1,0-0.3,0-0.4,0l0,0c-0.1,0-0.3,0-0.4-0.1l0,0c-0.3,0-0.5-0.1-0.8-0.1
	l0,0c-0.3-0.1-0.5-0.1-0.8-0.2l0,0c-0.1,0-0.3-0.1-0.4-0.1l0,0c-0.1,0-0.2-0.1-0.4-0.1l0,0c-0.1,0-0.2-0.1-0.4-0.1l0,0
	c-0.1,0-0.2-0.1-0.4-0.1l0,0c-0.5-0.2-0.9-0.3-1.4-0.5l0,0c-0.4-0.2-0.8-0.4-1.1-0.6l0,0c0,0,0.1,0,0.1,0l0,0
	c0.9,0.2,1.8,0.4,2.7,0.5l0,0c0.5,0,0.9,0.1,1.4,0.1l0,0c0.2,0,0.5,0,0.7,0l0,0l0.3,0l0.3,0c0.2,0,0.3,0,0.5,0l0,0
	C15,18,16.5,17.9,18.1,17.6"/>
</svg>
