<?xml version="1.0" encoding="utf-8"?>
<!-- Generator: Adobe Illustrator 24.0.1, SVG Export Plug-In . SVG Version: 6.00 Build 0)  -->
<svg version="1.1" id="Layer_1" xmlns="http://www.w3.org/2000/svg" xmlns:xlink="http://www.w3.org/1999/xlink" x="0px" y="0px"
	 viewBox="0 0 40 40" style="enable-background:new 0 0 40 40;" xml:space="preserve">
<style type="text/css">
	.st0{fill:#E6F3E8;}
</style>
<path id="Shape" class="st0" d="M6,11h0.8c1.1,2.4,2.4,4.3,4,5.7s3.5,2.4,5.7,3.1c-2.2,0.7-4.1,1.7-5.7,3.1s-2.9,3.3-4,5.7H6
	c1.1-2.4,2.3-4.3,3.7-5.7s3-2.4,4.8-3.1c-1.9-0.7-3.5-1.8-4.8-3.1C8.3,15.3,7.1,13.4,6,11z M23.5,11h0.8c1.1,2.4,2.4,4.3,4,5.7
	c1.6,1.4,3.5,2.4,5.7,3.1c-2.2,0.7-4.1,1.7-5.7,3.1c-1.6,1.4-2.9,3.3-4,5.7h-0.8c1.3-2.9,2-5.8,2-8.8S24.8,13.9,23.5,11z M19,19.4h7
	v0.8h-7V19.4z M10.2,11H11c1.1,2.4,2.4,4.3,4,5.7s3.5,2.4,5.7,3.1c-2.2,0.7-4.1,1.7-5.7,3.1s-2.9,3.3-4,5.7h-0.8
	c1.1-2.4,2.3-4.3,3.7-5.7s3-2.4,4.8-3.1c-1.9-0.7-3.5-1.8-4.8-3.1C12.5,15.3,11.3,13.4,10.2,11z"/>
</svg>
