<?xml version="1.0" encoding="utf-8"?>
<!-- Generator: Adobe Illustrator 24.0.1, SVG Export Plug-In . SVG Version: 6.00 Build 0)  -->
<svg version="1.1" id="Layer_1" xmlns="http://www.w3.org/2000/svg" xmlns:xlink="http://www.w3.org/1999/xlink" x="0px" y="0px"
	 viewBox="0 0 40 40" style="enable-background:new 0 0 40 40;" xml:space="preserve">
<style type="text/css">
	.st0{fill:#E6F3E8;}
</style>
<path id="Shape" class="st0" d="M28.6,6v0.8c-2.4,1.1-4.3,2.4-5.7,4s-2.4,3.5-3.1,5.7c-0.7-2.2-1.7-4.1-3.1-5.7s-3.3-2.9-5.7-4V6
	c2.4,1.1,4.3,2.3,5.7,3.7s2.4,3,3.1,4.8c0.7-1.9,1.8-3.5,3.1-4.8C24.3,8.3,26.2,7.1,28.6,6z M28.6,23.5v0.8c-2.4,1.1-4.3,2.4-5.7,4
	s-2.4,3.5-3.1,5.7c-0.7-2.2-1.7-4.1-3.1-5.7s-3.3-2.9-5.7-4v-0.8c2.9,1.3,5.8,2,8.8,2S25.7,24.8,28.6,23.5z M20.2,19v7h-0.8v-7H20.2
	z M28.6,10.2V11c-2.4,1.1-4.3,2.4-5.7,4s-2.4,3.5-3.1,5.7c-0.7-2.2-1.7-4.1-3.1-5.7s-3.3-2.9-5.7-4v-0.8c2.4,1.1,4.3,2.3,5.7,3.7
	s2.4,3,3.1,4.8c0.7-1.9,1.8-3.5,3.1-4.8C24.3,12.5,26.2,11.3,28.6,10.2z"/>
</svg>
