<?xml version="1.0" encoding="utf-8"?>
<!-- Generator: Adobe Illustrator 27.0.0, SVG Export Plug-In . SVG Version: 6.00 Build 0)  -->
<svg version="1.1" id="Layer_1" xmlns="http://www.w3.org/2000/svg" xmlns:xlink="http://www.w3.org/1999/xlink" x="0px" y="0px"
	 viewBox="0 0 40 40" style="enable-background:new 0 0 40 40;" xml:space="preserve">
<style type="text/css">
	.st0{fill-rule:evenodd;clip-rule:evenodd;fill:#D2A17D;}
	.st1{opacity:0.4;fill:none;stroke:#D2A17D;stroke-linejoin:bevel;enable-background:new    ;}
</style>
<path id="Combined-Shape" class="st0" d="M20,20l2,4l-2,13.3V20z M20,20l-2.5,3.7L5,28.7L20,20z M20,20l4.5,0.3L35,28.7L20,20z
	 M20,2.7V20l-2-4L20,2.7z M5,11.3L20,20l-4.5-0.3L5,11.3z M35,11.3L20,20l2.5-3.7L35,11.3z"/>
<polygon id="Path-7" class="st1" points="5,11.3 15.7,20 5,28.7 18,23.7 20,37.3 22.3,23.7 35,28.7 24.3,20 35,11.3 22,16.3 20,2.7 
	17.7,16.3 "/>
</svg>
