<?xml version="1.0" encoding="utf-8"?>
<!-- Generator: Adobe Illustrator 27.0.0, SVG Export Plug-In . SVG Version: 6.00 Build 0)  -->
<svg version="1.1" id="Layer_1" xmlns="http://www.w3.org/2000/svg" xmlns:xlink="http://www.w3.org/1999/xlink" x="0px" y="0px"
	 viewBox="0 0 40 40" style="enable-background:new 0 0 40 40;" xml:space="preserve">
<style type="text/css">
	.st0{opacity:0.2;fill-rule:evenodd;clip-rule:evenodd;fill:#D2A17D;enable-background:new    ;}
	.st1{fill:none;stroke:#D2A17D;}
</style>
<circle id="Oval" class="st0" cx="20" cy="20" r="8.5"/>
<path id="Oval_00000139279071713896023700000015946359474231849894_" class="st1" d="M20,18.6c3.3,0,6-2.7,6-6c0-2.2-2-4.2-6-6
	c-4,1.8-6,3.8-6,6C14,15.9,16.7,18.6,20,18.6z"/>
<path id="Oval_00000000191320728726809130000017167513065708577431_" class="st1" d="M12.6,26c3.3,0,6-2.7,6-6s-2.7-6-6-6
	c-2.2,0-4.2,2-6,6C8.4,24,10.4,26,12.6,26z"/>
<path id="Oval_00000180362875183500833150000007604654039971794835_" class="st1" d="M27.4,26c2.2,0,4.2-2,6-6c-1.8-4-3.8-6-6-6
	c-3.3,0-6,2.7-6,6S24.1,26,27.4,26z"/>
<path id="Oval_00000107586415619992002680000012499040915912731827_" class="st1" d="M20,33.3c4-1.8,6-3.8,6-6c0-3.3-2.7-6-6-6
	s-6,2.7-6,6C14,29.6,16,31.6,20,33.3z"/>
</svg>
