<?xml version="1.0" encoding="utf-8"?>
<!-- Generator: Adobe Illustrator 27.0.0, SVG Export Plug-In . SVG Version: 6.00 Build 0)  -->
<svg version="1.1" id="Layer_1" xmlns="http://www.w3.org/2000/svg" xmlns:xlink="http://www.w3.org/1999/xlink" x="0px" y="0px"
	 viewBox="0 0 40 40" style="enable-background:new 0 0 40 40;" xml:space="preserve">
<style type="text/css">
	.st0{fill-rule:evenodd;clip-rule:evenodd;fill:#D2A17D;}
</style>
<path id="Combined-Shape" class="st0" d="M20,0l0.3,17.2l3.6-16.9l-2.9,16.5l6.8-15.3l-6.5,16l9.9-14.1l-9.4,14.5l12.4-12l-12,12.4
	l14.5-9.4l-13.7,9.6l15.6-6l-15.9,6.7l17-3l-16.9,3.6L40,20l-17.2,0.3l16.9,3.6l-16.5-2.9l15.3,6.8l-16-6.5l14.1,9.9l-14.5-9.4
	l12,12.4l-12.4-12l9.4,14.5l-9.6-13.7l6,15.6l-6.7-15.9l3,17l-3.6-16.9L20,40l-0.3-17.2l-3.6,16.9l2.9-16.5l-6.8,15.3l6.5-16
	L8.9,36.6l9.4-14.5l-12.4,12l12-12.4L3.4,31.1l14.1-9.9l-16,6.5l15.3-6.8L0.4,23.9l16.9-3.6L0,20l17.2-0.3L0.4,16.1l16.5,2.9
	L1.6,12.3l16,6.5L3.4,8.9l14.5,9.4L5.9,5.9l12.4,12L8.9,3.4l9.6,13.7l-6-15.6l6.7,15.9l-3-17l3.6,16.9L20,0z"/>
</svg>
