<svg width="357" height="265" viewBox="0 0 357 265" fill="none" xmlns="http://www.w3.org/2000/svg">
<g opacity="0.6">
<path fill-rule="evenodd" clip-rule="evenodd" d="M113.021 201L109.121 199.95L113.021 198.9L114.071 195L115.121 198.9L119.021 199.95L115.121 201L114.071 204.899L113.021 201Z" fill="#7B47C9"/>
<circle cx="2" cy="197" r="2" fill="#7B47C9"/>
<circle cx="149" cy="133" r="2" fill="#7B47C9"/>
<circle cx="298" cy="176" r="1" fill="#7B47C9"/>
<circle cx="356" cy="195" r="1" fill="#7B47C9"/>
<circle cx="291" cy="63" r="1" fill="#7B47C9"/>
<circle cx="322" cy="1" r="1" fill="#7B47C9"/>
<circle cx="213" cy="141" r="1" fill="#7B47C9"/>
<circle cx="155" cy="224" r="1" fill="#7B47C9"/>
<path fill-rule="evenodd" clip-rule="evenodd" d="M195.621 189.228L193.95 188.778L195.621 188.328L196.071 186.657L196.521 188.328L198.192 188.778L196.521 189.228L196.071 190.899L195.621 189.228Z" fill="#7B47C9"/>
<path fill-rule="evenodd" clip-rule="evenodd" d="M92.2711 79.2853L85.5858 77.4853L92.2711 75.6853L94.0711 69L95.8711 75.6853L102.556 77.4853L95.8711 79.2853L94.0711 85.9706L92.2711 79.2853Z" fill="#7B47C9"/>
<path fill-rule="evenodd" clip-rule="evenodd" d="M273.021 261L269.121 259.95L273.021 258.9L274.071 255L275.121 258.9L279.021 259.95L275.121 261L274.071 264.899L273.021 261Z" fill="#7B47C9"/>
<path fill-rule="evenodd" clip-rule="evenodd" d="M329.271 130.214L322.586 128.414L329.271 126.614L331.071 119.929L332.871 126.614L339.556 128.414L332.871 130.214L331.071 136.9L329.271 130.214Z" fill="#7B47C9"/>
</g>
</svg>
