<?xml version="1.0" encoding="utf-8"?>
<!-- Generator: Adobe Illustrator 24.0.1, SVG Export Plug-In . SVG Version: 6.00 Build 0)  -->
<svg version="1.1" id="Layer_1" xmlns="http://www.w3.org/2000/svg" xmlns:xlink="http://www.w3.org/1999/xlink" x="0px" y="0px"
	 viewBox="0 0 100 100" style="enable-background:new 0 0 100 100;" xml:space="preserve">
<style type="text/css">
	.st0{fill-rule:evenodd;clip-rule:evenodd;fill:#D2A17D;}
</style>
<path id="Fill-1" class="st0" d="M68.3,51.9c-0.8,1.3-1.6,2.4-2.7,3.5c0.3-0.4,0.6-0.8,0.8-1.2c1-1.7,1.9-3.4,2.9-5
	c0.3-0.6,0.7-1.1,1.1-1.6c0.3-0.4,0.7-0.5,1.1-0.6C70.1,48.3,69.3,50.2,68.3,51.9L68.3,51.9z M64.2,56.6
	C64.1,56.6,64.1,56.6,64.2,56.6c0.2-0.7,0.4-1.3,0.7-1.9c0.7-1.4,1.4-2.8,2.1-4.1c0.4-0.8,0.9-1.5,1.7-2c0.1-0.1,0.1-0.1,0.3-0.2
	C67.6,51.3,65.9,54,64.2,56.6L64.2,56.6z M63.3,53.8c-0.7,1-1.4,2-2.3,2.8c-0.1,0.1-0.1,0.1-0.2,0.2c0,0-0.1,0-0.2,0.1
	c1.1-2,2-4,3.4-5.8c0.6-0.7,1.3-1.4,2-2c0.5-0.4,1.2-0.6,1.9-0.8c-0.5,0.5-1,0.9-1.5,1.4C65.1,51,64.2,52.4,63.3,53.8L63.3,53.8z
	 M58.3,58.3c1.3-1.8,2.1-4,3.7-5.7c-0.6,1.1-1.1,2.1-1.7,3.2c-0.3,0.5-0.6,1-0.9,1.6C59.3,58,58.8,58,58.3,58.3L58.3,58.3z
	 M55.9,59.4c1.1-1.1,1.9-2.3,2.8-3.5c0.6-0.9,1.1-1.9,1.8-2.7c0.4-0.6,1-1.2,1.5-1.8c0-0.1,0.1-0.1,0.2-0.1l0.1,0.1
	c0,0.1-0.1,0.1-0.1,0.2c-0.8,1.1-1.6,2.2-2.4,3.3c-0.6,0.9-1.1,1.9-1.7,2.8C57.5,58.4,56.9,59.1,55.9,59.4L55.9,59.4z M52.3,61.1
	c0.5-0.8,1-1.5,1.4-2.2c1.1-1.7,2.1-3.3,3.2-5c0.7-1.1,1.6-2.1,2.8-2.6c0.7-0.3,1.4-0.5,2.1-0.8c-0.3,0.4-0.6,0.6-0.9,1
	c-0.7,0.9-1.3,1.7-2,2.6c-0.9,1.3-1.6,2.7-2.7,3.9c-0.8,0.9-1.7,1.7-2.7,2.5C53.3,60.8,52.8,60.9,52.3,61.1L52.3,61.1z M51,61.5
	c-0.3,0.3-0.8,0.3-1.2,0.5c0.6-0.7,1.1-1.6,1.5-2.4c0.5-1,0.9-2.1,1.5-3.1c0.8-1.4,1.6-2.8,3.1-3.6c0.5-0.3,1-0.4,1.5-0.6
	c0,0,0,0.1,0,0.1c-0.4,0.5-0.8,1.1-1.1,1.6c-1.3,2-2.6,4.1-4,6.1C51.9,60.5,51.5,61.1,51,61.5L51,61.5z M47,62.7
	c0.5-0.4,1-0.8,1.5-1.2c1.2-1.1,2.1-2.5,2.7-4.1c0.6-1.3,1.1-2.6,2.2-3.5c0.1-0.1,0.3-0.2,0.5-0.3c-0.2,0.3-0.5,0.6-0.7,1
	c-1.1,1.5-1.8,3.2-2.6,4.9c-0.4,1-1,1.9-1.8,2.6C48.3,62.5,47.6,62.5,47,62.7L47,62.7z M44.5,63.2c0.1-0.1,0.1-0.1,0.1-0.1
	c1.3-0.9,2.3-2.1,3.2-3.4c0.4-0.6,0.6-1.3,1-1.9c0.8-1.4,1.8-2.7,3.1-3.6c0.1-0.1,0.2-0.2,0.4-0.2c-0.4,0.8-0.8,1.5-1.2,2.3
	c-0.6,1.1-1.1,2.2-1.7,3.2c-1,1.8-2.6,2.9-4.4,3.7C44.9,63.1,44.7,63.1,44.5,63.2L44.5,63.2z M42.5,63.4c-0.3,0-0.5,0-0.9,0.1
	c0.5-0.4,1-0.7,1.4-1.1c1.3-1.2,2.3-2.7,3.1-4.3c0.3-0.7,0.7-1.3,1.1-2c0.2-0.4,0.5-0.6,0.8-1c0.3-0.3,0.7-0.5,1.1-0.6
	c0.5-0.1,1-0.3,1.6-0.4c0,0.1,0,0.1-0.1,0.2c-1.2,1.2-2.2,2.6-2.9,4.1c-0.6,1.3-1.5,2.3-2.6,3.2c-0.4,0.4-0.9,0.8-1.4,1.2
	C43.4,63.2,43,63.4,42.5,63.4L42.5,63.4z M39.2,63.6c-0.2,0-0.5,0-0.7,0c0,0,0,0,0-0.1c0.2-0.1,0.3-0.2,0.5-0.3
	c1.2-0.7,2.1-1.8,2.9-3c0.7-0.9,1.3-1.9,2-2.8c0.5-0.7,1.3-1.3,2.1-1.7c0.3-0.1,0.6-0.2,0.9-0.3c-1,1.7-1.9,3.4-2.9,5
	c-0.5,0.7-1.1,1.3-1.7,2c-0.2,0.2-0.5,0.4-0.8,0.6C40.8,63.6,40,63.6,39.2,63.6L39.2,63.6z M37.2,63.5c-0.5,0-1-0.1-1.6-0.1
	c0.6-0.2,1-0.3,1.5-0.5c1.2-0.4,2.1-1.3,2.9-2.3c1-1.1,2-2.2,3-3.4c0.1-0.1,0.1-0.1,0.2-0.2c-0.7,1-1.3,1.9-1.9,2.8
	c-0.5,0.7-1,1.4-1.6,2.1c-0.6,0.8-1.5,1.2-2.4,1.5C37.4,63.5,37.3,63.5,37.2,63.5L37.2,63.5z M36.9,60.1c-1,0.3-2,0.6-3,0.8
	C33.2,61,32.5,61,31.8,61c0,0,0-0.1,0-0.1c0.4-0.1,0.9-0.2,1.3-0.3c0.9-0.4,1.9-0.7,2.8-1.2c1.4-0.8,2.8-1.3,4.3-1.9
	c0.7-0.3,1.5-0.5,2.3-0.8c0.1,0,0.1,0,0.2,0C41,58.3,39,59.3,36.9,60.1L36.9,60.1z M30.6,60.3c-0.7,0-1.4-0.3-2-0.8
	c0.1,0,0.2,0,0.3,0c2,0,3.8-0.5,5.6-1.4c0.3-0.2,0.6-0.5,1-0.7c0.2-0.1,0.4-0.2,0.7-0.3c1.2-0.2,2.4-0.3,3.6-0.5c0.1,0,0.1,0,0.2,0
	c0,0,0,0,0,0c-0.9,0.4-1.8,0.7-2.7,1.1c-1.1,0.5-2.3,1.1-3.4,1.7C32.8,60,31.8,60.4,30.6,60.3L30.6,60.3z M26,57.8
	c0.4,0.1,0.9,0.1,1.3,0.2c1.3,0.1,2.6-0.1,3.8-0.4c1.1-0.3,2.1-0.2,3.2-0.2c0,0,0,0.1,0.1,0.1c-0.2,0.1-0.5,0.2-0.7,0.3
	c-2,0.9-4.1,1.3-6.3,0.9C26.9,58.5,26.5,58.1,26,57.8L26,57.8z M30.3,57.1c-1.8,0.3-3.6,0.3-5.3-0.4C26.7,56.7,28.5,56.4,30.3,57.1
	L30.3,57.1z M26.1,56c-1.3,0.2-2.3-0.3-3.3-1.1C23.9,55.3,25,55.7,26.1,56L26.1,56z M14,50.1c4.1,0.1,7.5,2,10.6,4.3
	C21.1,53,17.5,51.8,14,50.1L14,50.1z M18.9,50.1c0.4,0.1,0.7,0.2,1.1,0.4c1.9,0.7,3.6,1.7,5.3,2.8c1.7,1.2,3.6,2,5.6,2.6
	c0.1,0,0.2,0,0.3,0.1c0,0,0,0.1,0,0.1c-0.5-0.1-1.1-0.1-1.6-0.3c-0.7-0.2-1.5-0.3-2.2-0.6c-0.4-0.1-0.8-0.4-1.2-0.6
	c-1-0.7-2-1.4-3.1-2.1c-1.5-1-3.1-1.9-4.8-2.5c-0.1,0-0.3-0.1-0.4-0.2C18.2,49.9,18.6,50,18.9,50.1L18.9,50.1z M25,51.6
	c0.7,0.3,1.3,0.8,2,1.2c1.4,0.9,2.7,1.8,4.2,2.5c0,0,0.1,0.1,0.1,0.1c-0.7,0-2.8-0.9-4.5-1.9c-1.4-0.8-2.7-1.7-4.1-2.6
	C23.6,50.9,24.3,51.2,25,51.6L25,51.6z M32.5,55.2c-1.7-0.6-3.1-1.6-4.7-2.5C28.4,52.7,31.9,54.6,32.5,55.2L32.5,55.2z M29.6,51.9
	c1,0.1,2,0.2,3,0.3c0.2,0,0.3,0.1,0.5,0.2c0.8,0.6,1.7,1.2,2.5,1.8c1.1,0.8,2.4,1.3,3.7,1.3c0.1,0,0.1,0,0.2,0c0,0,0.1,0,0.1,0.1
	c-0.6,0.1-1.2,0.2-1.8,0.3c-1.1,0.2-2.1-0.1-3.1-0.6c-0.8-0.4-1.6-0.7-2.4-1.2c-1.4-0.9-2.8-1.7-4.3-2.4
	C28.5,51.8,29,51.9,29.6,51.9L29.6,51.9z M35.1,52.7c2.8,0.7,5.6,1.5,8.5,2.2c-0.6,0.1-1.2,0.3-1.8,0.3c-0.3,0-0.6-0.1-0.9-0.1
	c-0.6-0.1-1.3-0.1-1.9-0.2c-1.1-0.2-2-0.7-2.8-1.2c-0.4-0.3-0.8-0.6-1.2-0.9L35.1,52.7z M37.8,52.3c0.6-0.1,1.3-0.2,1.9-0.2
	c0.7,0.1,1.5,0.3,2.2,0.6c1.5,0.5,2.9,1.1,4.4,1.6c-0.7,0.3-1.4,0.3-2.1,0c-0.6-0.2-1.3-0.3-1.9-0.5c-1.3-0.4-2.5-0.7-3.8-1.1
	c-0.4-0.1-0.8-0.2-1.1-0.4C37.4,52.3,37.6,52.3,37.8,52.3L37.8,52.3z M42.6,52.1c2.2,0.5,4.2,1.5,6.5,1.5c-0.6,0.3-1.2,0.3-1.8,0.2
	c-1.4-0.3-2.7-0.8-4-1.4C43,52.4,42.8,52.3,42.6,52.1C42.6,52.2,42.6,52.1,42.6,52.1L42.6,52.1z M47.7,51.8c1.5,0.4,3,0.7,4.4,1
	c0,0,0.1,0,0.2,0.1c-0.3,0.1-0.5,0.2-0.8,0.2c-2.3,0.2-4.5-0.4-6.7-1.2c-0.3-0.1-0.7-0.2-1-0.3C45.2,51.3,46.5,51.5,47.7,51.8
	L47.7,51.8z M46.6,50.6c1.3-0.2,2.6,0,3.9,0.4c1.3,0.4,2.6,0.6,3.9,0.7c0.4,0,0.9,0.1,1.3,0.1c-1.2,0.6-2.4,0.8-3.6,0.4
	c-1.3-0.4-2.7-0.7-4.1-1.1c-0.6-0.2-1.2-0.3-1.8-0.5C46.3,50.6,46.4,50.6,46.6,50.6L46.6,50.6z M50.4,48.5c1-0.1,2-0.1,3.1,0.2
	c2.2,0.6,4.3,1.2,6.6,1.4c0.1,0,0.1,0,0.2,0.1c-0.9,0.4-1.8,0.7-2.8,0.7c-1.1-0.1-2.1-0.4-3.1-0.8C53.1,49.5,51.8,49,50.4,48.5
	L50.4,48.5z M64.4,48.6c-1.4,0.7-2.8,1.2-4.4,0.9c-2-0.3-3.9-0.9-5.9-1.4c0,0,0-0.1,0-0.1c0.7,0.1,1.3,0.1,2,0.3
	c2.7,0.6,5.4,0.7,8.2,0.2C64.3,48.6,64.4,48.6,64.4,48.6L64.4,48.6z M57.2,46.3c2.5,0,4.9,0.8,7.3,1.4c0,0,0.1,0,0.2,0.1
	c-0.8,0.1-1.5,0.2-2.2,0.3c-1.8,0.3-3.5,0.1-5.3-0.3c-1.3-0.2-2.6-0.4-4-0.4c-0.1,0-0.1,0-0.3,0C54.4,46.8,55.7,46.3,57.2,46.3
	L57.2,46.3z M60.5,45.3c1.8,0,3.4,0.5,5,1.3c0.5,0.2,1,0.4,1.5,0.6c0.1,0,0.2,0.1,0.3,0.1c0,0,0,0.1,0,0.1c-0.2,0-0.5,0.1-0.7,0.1
	c-0.7-0.1-1.4-0.3-2-0.5c-1.5-0.4-3-0.8-4.5-1.1c-0.8-0.2-1.7-0.2-2.6-0.3C58.4,45.3,59.4,45.3,60.5,45.3L60.5,45.3z M65.1,45.7
	c1.3,0.3,2.7,0.7,4.1,1.1c-1.6,0.3-2.8-0.4-4.1-1C65.1,45.8,65.1,45.8,65.1,45.7L65.1,45.7z M93.3,39.2c-0.1,0-0.1,0-0.2,0
	c-1.4,0.1-2.9,0.1-4.3,0.3c-2.4,0.3-4.8,0.9-7,1.9c-1.1,0.4-2.2,0.7-3.3,0.1c-0.1-0.1-0.3-0.1-0.5-0.1l-0.5,0.3
	c0.1,0.1,0.1,0.1,0.2,0.2c0.4,0.2,0.9,0.4,1.3,0.5c-1.7,0.7-3.3,0.7-5-0.1c-1-0.5-2-0.9-3-1.1c-0.6-0.1-1.1-0.1-1.6,0.1
	c-0.1,0-0.2,0.1-0.3,0.2c0.4,0,0.9-0.1,1.3,0c1,0.3,2,0.7,3,1.1c1,0.4,2,1.1,3.1,1.1c0,0,0,0,0,0.1c-0.1,0.1-0.2,0.1-0.4,0.2
	c-1.4,0.6-2.8,1.2-4.3,1.8c-0.7,0.3-1.4,0.6-2.2,0.4c-0.6-0.1-1.1-0.2-1.7-0.3c-1.9-0.5-3.9-1-5.8-1.4c-1.5-0.3-3-0.2-4.5,0.1
	c-1.5,0.4-2.9,1.1-4.2,2c-1,0.6-2.1,1.1-3.4,1.2c-0.3,0-0.7,0.2-1,0.2c-0.4,0.1-0.9,0.2-1.3,0.2c-1.5,0.1-2.9,0.4-4.2,0.9
	c0.2,0,0.3,0,0.5,0c1-0.1,2-0.3,3-0.3c1.6,0.1,3.2,0.5,4.8,1c0.9,0.3,1.7,0.7,2.6,1.1c-1.2,0-2.4-0.3-3.6-0.6c-1-0.3-2-0.5-3.1-0.6
	c-1.4-0.2-2.8,0.2-4.2,0.6c-2.4,0.6-4.8,1-7.3,1.2c-1.5,0.1-3-0.1-4.3-0.9c-0.8-0.5-1.6-1-2.5-1.4c-1.8-0.9-3.8-1.3-5.8-1.2
	c-0.1,0-0.2,0-0.3,0.1c0.8,0.2,1.4,0.4,2.1,0.5c0.7,0.2,1.3,0.4,2,0.7c0.7,0.3,1.3,0.5,1.9,0.9c0.6,0.3,1.2,0.7,1.8,1l0,0.1
	c-0.1,0-0.1,0-0.2,0c-1.8-0.2-3.6-0.5-5.4-0.7c-1.8-0.2-3.4-0.8-5-1.5c-1-0.4-2.1-0.9-3.1-1.3c-0.6-0.2-1.2-0.3-1.9-0.1
	c1.2,0.2,3.1,0.9,3.5,1.4c-0.1,0-0.3-0.1-0.4-0.1c-1.5-0.3-2.9-0.4-4.4,0c-0.7,0.2-1.5,0.5-2.2,0.7c-1.2,0.3-2.2,1-3,1.9
	c-0.1,0.1-0.1,0.3-0.1,0.4c0.1,0,0.3,0,0.4-0.1c0.7-0.5,1.4-1,2.2-1.3c0.7-0.2,1.4-0.2,2.2,0.3c-0.2,0-0.3,0-0.3,0
	c-2.5,0.2-4.2,2.6-3.5,5c0.6,2.1,1.9,3.6,3.8,4.5c0.8,0.4,1.6,0.5,2.4,0.1c1.1-0.6,1.4-1.9,1.2-2.9c0-0.3-0.2-0.6-0.3-0.9L16,57.2
	c0,0.5,0.1,1,0.1,1.5c-0.1,1-0.7,1.4-1.6,1.1c-0.8-0.2-1.5-0.7-2.1-1.2c-1.2-1-1.8-2.2-1.8-3.7c0-1.8,1.3-3,3.1-2.9
	c0.9,0,1.8,0.2,2.6,0.5c0.4,0.1,0.8,0.3,1.2,0.4c-1.5,0.1-2.6,0.8-3.6,1.8c0.4-0.1,0.9-0.2,1.3-0.4c1-0.4,2.1-0.8,3.2-0.5
	c0.8,0.2,1.6,0.2,2.3,0.8c1,0.8,2,1.7,2.9,2.5c0.2,0.2,0.4,0.4,0.6,0.6c-0.9-0.3-1.7-0.6-2.5-0.9c-0.8-0.3-1.6-0.6-2.5-0.5
	c-0.4,0-0.7,0.1-1.1,0.2l0,0.1c0.3,0,0.7,0,1,0c0.9,0.2,1.8,0.5,2.6,0.8c1.1,0.4,2.1,1,3.1,1.4c0.6,0.3,1.2,0.5,1.7,0.8
	c0.7,0.4,1.2,0.9,1.9,1.3c2.3,1.4,4.8,1.7,7.3,0.8c1.2-0.4,2.4-0.9,3.5-1.4c0.1,0,0.2-0.1,0.3-0.1c-0.3,0.4-0.5,0.8-0.9,1.1
	c-1.3,1.3-2.9,2-4.8,2c-0.6,0-1.1,0-1.7,0c-0.3,0-0.7,0-1,0.1c0,0,0,0.1,0,0.1c0.6,0.1,1.2,0.2,1.8,0.3c0.8,0.1,1.6,0.2,2.4,0.3
	c1.5,0.2,3,0.5,4.5,0.6c3.7,0.2,7.2-0.4,10.7-1.6c2.2-0.7,4.4-1.7,6.5-2.8c0.4-0.2,0.9-0.4,1.3-0.7c-0.5,1.3-1,2.6-2.5,3
	c0.1,0,0.3,0,0.4,0c0.7-0.1,1.3-0.6,1.7-1.2c0.5-0.7,0.9-1.4,1.4-2.2c0.1-0.2,0.2-0.3,0.4-0.4c1.6-0.9,2.8-2.2,3.8-3.7
	c0.3-0.5,0.6-1,1-1.4c-0.2,0.6-0.4,1.2-0.6,1.7c-0.7,1.8-1.4,3.6-2.6,5.3c0.3-0.2,0.5-0.4,0.6-0.5c0.3-0.3,0.5-0.7,0.8-1
	c1.1-1,2.3-2,3.4-3c0.5-0.5,1-1,1.4-1.5c1.2-1.4,2-2.9,2.9-4.5c0-0.1,0.1-0.1,0.1-0.2c-0.8,2.7-0.4,4.3,0.2,4.9c0,0,0,0,0,0
	c0-0.1,0-0.1,0-0.2c-0.2-0.7-0.3-1.4-0.2-2.1c0.1-1.2,0.5-2.3,1-3.4c0.4-1,0.9-2,1.9-2.7c0.4-0.3,0.8-0.6,1.2-0.9
	c0.5-0.3,1-0.4,1.5-0.7c-1.3,2.7-3.2,5-4.2,7.7c0.4-0.6,0.9-1.1,1.3-1.7c1.2-1.7,2.4-3.5,3.5-5.2c0.4-0.6,0.7-1.2,1.3-1.6
	c0.5-0.3,1-0.5,1.5-0.8c2.1-1,4.2-1.9,6.5-2.4c1.9-0.4,3.9-0.7,5.8-1.1c0.4-0.1,0.9-0.1,1.3-0.2c0.1,0,0.1-0.1,0.2-0.2
	C93.5,39.3,93.4,39.2,93.3,39.2L93.3,39.2z"/>
</svg>
