<?xml version="1.0" encoding="utf-8"?>
<!-- Generator: Adobe Illustrator 24.0.1, SVG Export Plug-In . SVG Version: 6.00 Build 0)  -->
<svg version="1.1" id="Layer_1" xmlns="http://www.w3.org/2000/svg" xmlns:xlink="http://www.w3.org/1999/xlink" x="0px" y="0px"
	 viewBox="0 0 140 36" style="enable-background:new 0 0 140 36;" xml:space="preserve">
<style type="text/css">
	.st0{fill-rule:evenodd;clip-rule:evenodd;fill:#E6F3E8;}
</style>
<path class="st0" d="M19,2H7v5.8h0.4c0-3.3,0.4-5.5,2.5-5.5h1.9v31.2H8.6v0.3h8.7v-0.3h-3.1V2.3h1.9c2.1,0,2.5,2.2,2.5,5.5H19V2z
	 M81,7.8h0.4c0-3.3,0.4-5.5,2.5-5.5h1.9v31.2h-3.2v0.3h8.7v-0.3h-3.1V2.3h1.9c2.1,0,2.5,2.2,2.5,5.5H93V2H81V7.8z M28.6,7.6h-1.1
	l-6.2,24c-0.4,1.5-0.8,1.8-2.4,1.8v0.3h4.7v-0.3h-0.9c-1,0-1.2-0.3-1.2-0.8c0-0.3,0-0.5,0.1-0.9l1.7-6.4h7.1L32,32
	c0.1,0.5,0.2,1,0.3,1.4h-2.1v0.3h6.7v-0.3h-1.9L28.6,7.6z M23.3,25.1l3.6-14.1l3.4,14.1H23.3z M119.5,7.6c-2.4,0-4.6,0.6-6.5,1.7
	c-1.9-1.1-4.1-1.7-6.5-1.7c-7.3,0-13.2,5.9-13.2,13.2s5.9,13.2,13.2,13.2c2.4,0,4.6-0.6,6.5-1.7c1.9,1.1,4.1,1.7,6.5,1.7
	c7.3,0,13.2-5.9,13.2-13.2S126.8,7.6,119.5,7.6z M98.8,28.4c-6.7-6.7-5-13.1-1.5-16.6c3-3,8.1-4.8,13.7-1c-2.9,2.4-4.8,6.1-4.8,10.2
	c0,4.8,2.5,8.9,6.3,11.3C108.9,33.8,103.9,33.5,98.8,28.4z M111.8,28.4c-6.7-6.7-5-13.1-1.5-16.6c0.3-0.3,0.6-0.6,1-0.9
	c0.9,0.6,1.8,1.4,2.7,2.3c6.8,6.8,5.1,13.4,1.6,16.8c-0.3,0.3-0.6,0.5-0.9,0.8C113.8,30.2,112.8,29.4,111.8,28.4z M128.6,30
	c-2.9,2.9-8,4.6-13.6,1c2.9-2.4,4.7-6.1,4.7-10.1c0-4.8-2.6-9-6.4-11.3c3.6-1.7,8.5-1.6,13.6,3.6C133.8,20,132,26.6,128.6,30z
	 M77.2,12L77.2,12c-2.4-2.6-5.9-4.3-9.8-4.3c-7.3,0-13.2,5.9-13.2,13.2c0,1.3,0.2,2.6,0.6,3.8c-3-2.6-6.1-3.4-7.1-3.7
	c3.2-0.4,6.1-2.7,6.1-6.6c0-3.6-2.5-6.4-8.2-6.4h-8.2v0.3h3v25.2h-3v0.3h8.5v-0.3h-3V8.3h2.7c4.8,0,5.7,3.2,5.7,6.2
	c0,3.7-1.6,6.4-5.3,6.4h-1.3v0.2c5.8,0,11.2,7.2,14.4,9.9c0.1,0.1,0.2,0.1,0.2,0.2c0.1,0.1,0.1,0.1,0.2,0.2c0,0,0,0,0,0
	c2.2,1.7,5,2.7,8,2.7c7.3,0,13.2-5.9,13.2-13.2C80.7,17.4,79.4,14.3,77.2,12C77.2,12,77.2,12,77.2,12z M78.4,17.8
	c2.5,5.1,0.9,9.6-1.7,12.3c-3.4,3.4-10,5.2-16.8-1.6c-6.7-6.7-5-13.1-1.5-16.6s9.9-5.4,16.7,1.4c0.3,0.3,0.7,0.7,1,1
	c0.3,0.5,0.5,1.1,0.6,1.7c0.1,0.9-0.2,1.9-0.7,2.6l-0.1,0.1c0,0,0,0-0.1,0.1c0,0,0,0-0.1,0.1c0,0-0.1,0.1-0.1,0.1
	c-0.2,0.1-0.4,0.2-0.6,0.2c-0.4,0.1-0.9,0.2-1.4,0.2c-0.5,0-1-0.1-1.4-0.3c-0.2-0.1-0.3-0.2-0.4-0.3c-0.1-0.1-0.2-0.3-0.3-0.6
	c-0.1-0.4-0.2-1-0.2-1.4c0-0.2,0.1-0.5,0.1-0.7c0.1-0.2,0.2-0.4,0.3-0.5c0.5-0.4,2-0.5,2.6-0.1c0,0,0.1,0.1,0.1,0.2
	c0,0.1,0.1,0.2,0.1,0.3c0,0.2,0.1,0.5,0.1,0.8c0,0.3,0,0.5-0.1,0.7c0,0.1,0,0.1-0.1,0.2c-0.1,0-0.2,0.1-0.3,0.1
	c-0.2,0.1-0.5,0.1-0.8,0.1c-0.3,0-0.5-0.1-0.6-0.2c-0.3-0.4-0.3-1,0-1.3L72.3,16c-0.3,0.2-0.4,0.6-0.4,0.9c0,0.3,0,0.7,0.2,1
	c0.1,0.2,0.3,0.3,0.4,0.4c0.2,0.1,0.3,0.1,0.5,0.1c0.3,0.1,0.6,0.1,1,0c0.2,0,0.3-0.1,0.5-0.1c0.1,0,0.2-0.1,0.3-0.2
	c0.1-0.1,0.2-0.2,0.2-0.3c0.2-0.3,0.2-0.7,0.3-1c0-0.3,0-0.6,0-0.9c0-0.2,0-0.3-0.1-0.5c-0.1-0.2-0.1-0.3-0.3-0.6
	c-0.3-0.3-0.7-0.4-1-0.5c-0.3-0.1-0.6-0.1-1-0.1c-0.3,0-0.6,0-1,0.1c-0.3,0.1-0.7,0.1-1,0.4c-0.3,0.3-0.5,0.6-0.7,0.9
	c-0.1,0.3-0.2,0.7-0.3,1c-0.1,0.7-0.1,1.3,0.1,2c0.1,0.3,0.2,0.7,0.4,1c0.1,0.1,0.1,0.2,0.2,0.3c0.1,0.1,0.2,0.2,0.2,0.2
	c0.1,0.1,0.2,0.1,0.2,0.2c0.1,0.1,0.2,0.1,0.2,0.2c0.7,0.3,1.3,0.5,2,0.6c0.6,0.1,1.3,0,2-0.1c0.3-0.1,0.7-0.2,1-0.3
	c0.1,0,0.2-0.1,0.3-0.1c0.1-0.1,0.2-0.1,0.3-0.2c0.1-0.1,0.2-0.2,0.3-0.2l0.2-0.2C77.8,19.1,78.1,18.5,78.4,17.8z"/>
</svg>
