<?xml version="1.0" encoding="utf-8"?>
<!-- Generator: Adobe Illustrator 24.0.1, SVG Export Plug-In . SVG Version: 6.00 Build 0)  -->
<svg version="1.1" id="Layer_1" xmlns="http://www.w3.org/2000/svg" xmlns:xlink="http://www.w3.org/1999/xlink" x="0px" y="0px"
	 viewBox="0 0 40 40" style="enable-background:new 0 0 40 40;" xml:space="preserve">
<style type="text/css">
	.st0{fill-rule:evenodd;clip-rule:evenodd;fill:#1E1131;}
</style>
<path id="Combined-Shape" class="st0" d="M25,14c3.3,0,6,2.7,6,6s-2.7,6-6,6c-0.7,0-1.5-0.1-2.1-0.4c2.3-0.9,3.9-3,3.9-5.6
	s-1.6-4.8-3.9-5.6C23.5,14.1,24.2,14,25,14z M9.9,14c3.3,0,6,2.7,6,6s-2.7,6-6,6c-0.3,0-0.6,0-0.9-0.1c2.9-0.4,5.1-2.9,5.1-5.9
	s-2.2-5.5-5.1-5.9C9.3,14,9.6,14,9.9,14z"/>
</svg>
