<?xml version="1.0" encoding="utf-8"?>
<!-- Generator: Adobe Illustrator 24.0.1, SVG Export Plug-In . SVG Version: 6.00 Build 0)  -->
<svg version="1.1" id="Layer_1" xmlns="http://www.w3.org/2000/svg" xmlns:xlink="http://www.w3.org/1999/xlink" x="0px" y="0px"
	 viewBox="0 0 60 60" style="enable-background:new 0 0 60 60;" xml:space="preserve">
<style type="text/css">
	.st0{fill-rule:evenodd;clip-rule:evenodd;fill:#A689D2;}
</style>
<polygon id="Star" class="st0" points="30,36 27.4,59.9 29,35.9 22.2,59 27.9,35.6 17.3,57.2 27,35.2 12.8,54.6 26.1,34.6 8.8,51.2 
	25.4,33.9 5.4,47.2 24.8,33 2.8,42.7 24.4,32.1 1,37.8 24.1,31 0.1,32.6 24,30 0.1,27.4 24.1,29 1,22.2 24.4,27.9 2.8,17.3 24.8,27 
	5.4,12.8 25.4,26.1 8.8,8.8 26.1,25.4 12.8,5.4 27,24.8 17.3,2.8 27.9,24.4 22.2,1 29,24.1 27.4,0.1 30,24 32.6,0.1 31,24.1 37.8,1 
	32.1,24.4 42.7,2.8 33,24.8 47.2,5.4 33.9,25.4 51.2,8.8 34.6,26.1 54.6,12.8 35.2,27 57.2,17.3 35.6,27.9 59,22.2 35.9,29 
	59.9,27.4 36,30 59.9,32.6 35.9,31 59,37.8 35.6,32.1 57.2,42.7 35.2,33 54.6,47.2 34.6,33.9 51.2,51.2 33.9,34.6 47.2,54.6 
	33,35.2 42.7,57.2 32.1,35.6 37.8,59 31,35.9 32.6,59.9 "/>
</svg>
