<?xml version="1.0" encoding="utf-8"?>
<!-- Generator: Adobe Illustrator 24.0.1, SVG Export Plug-In . SVG Version: 6.00 Build 0)  -->
<svg version="1.1" id="Layer_1" xmlns="http://www.w3.org/2000/svg" xmlns:xlink="http://www.w3.org/1999/xlink" x="0px" y="0px"
	 viewBox="0 0 1000 1000" style="enable-background:new 0 0 1000 1000;" xml:space="preserve">
<style type="text/css">
	.st0{fill:#C5D4ED;}
	.st1{opacity:0.4;fill:#F8F9FD;}
</style>
<rect x="0" class="st0" width="1000" height="1000"/>
<path class="st1" d="M446.32,99.74c-1.7-2.91-4.12-5.48-6.93-7.87c-1.85,0.83-4.51,1.84-6.93,1.72c1.31,0.97,1.31,0.97,3.02,0.16
	c-1.71,0.82-5.12,2.45-5.12,2.45c0.92,2.76,8.24,4.05,12.95,3.39c-2.8,1.34-6.74,3.23-9.95,4.77c0.92,0.91,1.9,1.8,2.92,2.66
	c1.27,0.28,2.59,0.48,3.72,0.54l-1.69,0.82c5.86,1.04,9.46-0.99,13.79-1.64C449.66,104.81,447.65,102.56,446.32,99.74z
	 M424.89,79.04c0.96-1.06,1.92-2.11,2.85-3.13c-1.09,0.88-2.18,1.75-3.24,2.61C424.64,78.67,424.77,78.84,424.89,79.04z
	 M465.11,120.61l-2.33-0.66c0.13,2.1-0.05,4.35-0.63,6.78c-2.6,3.18,5.79,3.68,15.11,4.66
	C477.61,127.01,474.58,123.33,465.11,120.61z M498.36,159.68c-0.48-0.35-0.94-0.7-1.38-1.07c-1.75,1.29-3.75,2.38-5.79,3.42
	c1.56,1.19,3.14,2.39,4.72,3.59c0.98-0.58,2.15-1.18,3.33-1.73c0.15,0.5,0.29,1,0.44,1.5c-0.18,0.69-0.46,1.36-1.42,1.97l0.18,0.12
	c0.92,0.65,1.83,1.3,2.75,1.96c-0.27-0.67-0.53-1.33-0.79-1.99c2.77,0.36,5.62,1.93,6.3-0.68
	C506.04,164.3,501.85,162.22,498.36,159.68z M843.26,101.72c-1.77-7.25-7.92-14.56-16.04-19.9c-4.07-2.69-8.62-4.78-13.46-6.31
	c-4.84-1.53-9.94-2.31-15.06-2.08l-7.95-0.34c-2.67-0.17-5.33-0.33-8.01-0.5c-5.34-0.31-10.69-0.62-16.09-0.94
	c-10.85-0.7-21.85-1.4-33.18-2.13c-8.09-0.55-16.26-0.88-24.79-1.36c-0.78,0.03-1.56,0.05-2.37,0.08
	c-14.6,0.72-32.6,5.06-40.46,2.43c-3.02-1.31-5.99-2.59-8.96-3.88c-6.6-2.93-13.1-5.82-19.55-8.69c-1.81,1.42-3.72,2.82-5.41,4.25
	c-12.22-3.37-29.03,0.47-42.69,1.92c-0.04,0-0.08,0.01-0.12,0.02c2.26-5.01-6.26-5.24-8.43-5.28c-10.73-0.25-14.95-2.89-23.51-5.61
	c-1.67-0.22-3.34-0.38-5.01-0.51c-8.98-0.65-17.89-0.35-26.93-2.39c-26.28,1.35-18.26-19.22-35.61-16.65
	c-4.32,0.85-8.32,1.26-12.13,1.39c-4.67,0.22-9.05,0.01-13.35-0.45c-2.32,0.8-5.08,1.63-7.36,1.89c-6.69,1.37-5.79-2.23-8.95-2.38
	l1.36,0.97l-2.13-0.2c3.24,3.88,5.31,8.09,5.2,12.71c-0.04,1.83-0.39,3.72-1.2,5.71c-0.86,3.56,10.6,7.97,15.82,11.96
	c3.13,6.8-3.35,11.94-9.74,16.87c-0.94,1-1.91,2.03-2.89,3.07c-0.12-0.21-0.25-0.37-0.37-0.53c-0.84,0.67-1.65,1.34-2.4,2.02
	c2.25,1.55,4.42,3.14,6.42,4.81c0.75,0,1.54,0.12,2.4,0.46c-0.35,0.15-0.78,0.34-1.24,0.55c2.77,2.44,5.14,5.06,6.8,8
	c1.29,2.84,3.27,5.13,5.68,7.1c1.03-0.13,2.1-0.19,3.25-0.11c-1.08,0.13-1.8,0.44-2.32,0.83c1.26,0.95,2.64,1.83,4.07,2.67
	c-0.79,1.23-1.25,2.61-3.93,2.93c2.13,1.69,4.56,2.06,7.32,1.26c-2.01,0.6-3.98,0.8-6.39,0.99c0.81,0.21,1.36,0.69,1.16,1.52
	c-0.44,0.54-0.96,0.82-1.53,0.97c8.08,6.1,15.3,12.83,15.73,22.42c0.77,0.23,1.54,0.47,2.3,0.7c9.32,2.87,12.27,6.6,11.87,10.98
	c5.65,0.72,11.67,1.7,15.72,3.49c6.61,3.76,12.39,8.41,18.35,13.18c1.55-0.74,3.04-1.54,4.46-2.4c2.89,1.99,5.69,3.78,6.2,5.76
	c-0.73,2.62-3.57,0.99-6.38,0.56l0.76,2.01l0.96,0.67c1.7-0.17,3.4-0.68,4.94-1.46c1.77-1.99,3.75-3.94,5.31-5.7
	c-0.67,2.37-2.75,4.39-5.31,5.7c-0.92,1.03-1.77,2.08-2.49,3.12c3.62,2.38,7.45,4.56,11.71,6.46c0.88-0.27,1.75-0.54,2.56-0.87
	c-0.69,0.3-1.46,0.64-2.27,1c0.59,0.25,1.18,0.51,1.77,0.76c3.42-1.41,10.27-4.24,17.11-7.06c4.15,7,9.34,10.57,15.19,11.88
	c10.83,2.43,24.09-2.98,37.48-8.69c4.09-1.75,8.23-3.54,12.3-5.14c3.45-1.35,6.86-2.58,10.19-3.53c3.5-1.4,8.45,2.82,8.45,2.82
	c6.11-1.01,11.6-2.81,16.77-4.97c10.15-4.22,19.19-10.04,29.45-14.4c6.83-2.87,14.27-5.23,23.02-6.1c6.3-0.62,12.3-1.88,18.12-3.7
	c4.58-1.41,9.02-3.07,13.36-4.93c7.58-3.18,14.88-7.2,22.04-11.08c3.57-1.95,7.14-3.89,10.68-5.82c3.55-1.97,7.1-3.88,10.68-5.66
	c3.35-1.68,8.62,2.14,11.99,0.46C828.92,116.02,845.38,107.13,843.26,101.72z M539.78,158.86c-2.27-0.74-4.58-1.64-6.45-0.86
	c0.12-0.43,0.2-0.85,0.27-1.26c2.27,0.74,4.59,1.65,6.46,0.86C539.94,158.02,539.86,158.44,539.78,158.86z"/>
<path class="st1" d="M58.47,230.95c-2.55,1.61-6.06,3.94-9.43,5.38c2.15,0.07,2.13,0.11,4.29-1.66c-1.08,0.88-2.68,2.18-3.94,3.36
	c-0.64,0.57-1.2,1.1-1.58,1.5c-0.39,0.39-0.63,0.64-0.63,0.64c1.14,0.97,4.17,0.46,7.76-0.29c3.56-0.78,7.76-1.85,10.98-2.91
	c-3.68,2.21-8.53,5.63-11.91,8.94c1.46,0.33,2.97,0.66,4.5,1.01c1.67-0.33,3.37-0.68,4.81-1.04l-1.89,1.44
	c3.78-0.69,6.71-1.6,9.38-2.59c2.67-0.98,5.1-2.05,7.79-2.73c-3.31-1.52-6.28-3.28-8.54-5.73
	C67.26,233.85,63.36,231.99,58.47,230.95z M96.25,253.77c-0.98-0.1-1.96-0.21-2.95-0.31c0.38,2.07,0.39,4.34-0.06,6.84
	c-2.92,3.59,7.71,2.68,18.86,2.66C112.11,258.57,108.22,255.12,96.25,253.77z M32.6,228.91c0.92-1.89,1.91-3.77,2.95-5.53
	c-1.37,1.77-2.6,3.63-3.74,5.42C32.07,228.81,32.33,228.84,32.6,228.91z M135.88,290.03c-0.43-0.35-0.86-0.71-1.26-1.08
	c-1.61,1.27-3.47,2.38-5.4,3.49c1.54,1.14,3.01,2.33,4.44,3.51c0.84-0.57,1.91-1.18,2.92-1.7c0.11,0.5,0.23,1,0.35,1.51
	c-0.17,0.68-0.42,1.35-1.23,1.94l0.15,0.13c0.73,0.67,1.47,1.35,2.22,2.03c-0.2-0.68-0.39-1.35-0.58-2.01
	c2.33,0.45,4.23,2.17,4.94-0.41c-0.14-1.25-0.96-2.44-2.14-3.68C139.05,292.56,137.43,291.34,135.88,290.03z M543.33,276.74
	c-4.37-4.99-10.1-9.58-16.72-13.37c-6.62-3.69-14.13-6.54-21.89-7.95c-15.84-3.82-31.62-6.08-47.32-7.26
	c-15.76-1.18-31.28-1.23-46.61-0.76c-10.89,0.34-21.64,0.95-32.36,1.64c-0.97,0.13-1.96,0.26-2.96,0.39
	c-9.1,1.28-18.79,3.56-27.28,5.12c-8.51,1.59-15.82,2.41-20.32,1.3c-3.46-1.12-6.84-2.31-10.16-3.55
	c-7.43-2.76-14.55-5.77-21.47-8.89c-2.01,1.35-4.13,2.65-6.06,3.98c-3.31-1.01-6.92-1.65-10.72-2.06
	c-3.81-0.41-7.92-0.59-11.32-0.65c-1.6-0.01-3.22-0.02-4.83-0.03l-2.12,0c-0.7,0.01-1.03,0.06-1.49,0.11
	c-1.75,0.19-3.54,0.21-5.2-0.01l-0.06,0c2.49-3.66,0.53-5.19-0.39-5.94c-0.16-0.13-0.31-0.22-0.41-0.29
	c-0.87-0.59-1.47-1.28-1.9-1.99c-0.21-0.36-0.4-0.74-0.43-1.03c-0.38-0.58-0.91-1.38-1.31-2.06c-0.98-1.56-1.9-3.19-3.23-5.25
	c-1.26-2-2.86-4.37-5.16-7.27l-1.52-1.53l-1.69-1.59c-1.12-1.06-2.33-2.11-3.74-3.3c-1.32-1.12-2.69-2.19-4.06-3.26
	c-6.95-5.32-14.61-9.84-22.39-13.72c-7.65-3.82-15.25-7-22.69-10.06c-12.4-3.07-20.14-5.05-25.81-7.5
	c-5.64-2.38-9.06-4.95-12.07-7.48c-2.94-2.48-5.43-4.9-9.08-6.51c-3.63-1.62-8.51-2.47-15.61-1.54c-7.06,1.14-13.16,2.04-18.73,2.71
	c-6.73,0.81-12.69,1.26-18.21,1.44c-2.91,1.14-6.13,2.36-8.86,2.96c-4.19,1.19-6.74,1-8.36,0.47c-1.66-0.52-2.76-1.3-5.51-0.96
	c0.89,0.18,1.64,0.41,2.46,0.61c-1.17,0.08-2.45,0.23-3.77,0.38c6.35,2.92,9.68,6.74,10.06,11.35c0.13,1.83-0.2,3.79-1.17,5.94
	c-0.49,1.87,3.95,3.23,8.52,4.74c4.43,1.52,9.72,3.01,13.32,4.61c4.68,6.31-3.06,12.35-10.34,18.21c-1.11,1.15-2.26,2.33-3.41,3.53
	c-0.18-0.18-0.36-0.33-0.55-0.46c-1.07,0.83-2.06,1.64-3.03,2.47c3.28,1.09,6.28,2.31,8.94,3.67c0.95-0.12,1.91-0.11,3.01,0.1
	c-0.41,0.2-0.91,0.46-1.46,0.73c3.65,2.02,6.88,4.27,9.25,6.96c1.9,2.64,4.61,4.63,7.8,6.28c1.27-0.27,2.6-0.46,4.04-0.52
	c-1.34,0.27-2.2,0.65-2.81,1.11c1.67,0.79,3.46,1.49,5.31,2.16c-0.88,1.31-1.31,2.74-4.6,3.4c2.8,1.41,5.81,1.52,9.12,0.42
	c-2.41,0.83-4.82,1.22-7.76,1.71c1.02,0.11,1.74,0.52,1.56,1.37c-0.49,0.59-1.1,0.93-1.78,1.14c10.59,5.07,19.3,11.25,20.09,20.87
	c0.86,0.18,1.69,0.38,2.51,0.6c10.05,2.62,12.3,6.78,11.77,11.06c5.01,0.95,9.81,2.59,12.38,4.98c4.08,4.65,5.9,10.39,5.76,15.5
	c0.86-0.5,1.68-0.97,2.49-1.44c-0.09,2.04-0.38,3.87-1.28,5.41c-0.06,0.12-0.13,0.24-0.2,0.35c-0.1,0.11-0.2,0.22-0.3,0.33
	c-1.36,1.5-1.03-0.01-1.46-0.67c-0.28,0.6-0.57,1.2-0.85,1.8l-0.17,0.68c0.38,0,0.87-0.15,1.55-0.54c0.08-0.04,0.16-0.08,0.23-0.12
	c0.78-0.68,1.55-1.36,2.42-1.89c0.88-0.56,1.97-0.83,2.9-1.23c-0.93,0.78-1.97,1.35-2.98,1.77c-1,0.46-1.67,1-2.34,1.35
	c-0.16,0.15-0.33,0.31-0.47,0.44c-0.64,0.59-1.24,1.21-1.79,1.84c-0.13,0.37-0.25,0.74-0.39,1.14c-0.31,0.96-0.9,1.59-0.75,2.85
	c-0.02,1.08,0.41,2.56,1.02,4.12c0.86,0.41,1.59,0.68,2.56,1.11c-0.84-0.38-1.56-0.55-2.43-0.83c0.27,0.59,0.51,1.14,0.82,1.75
	c1.88,0.73,4.96,2.14,9.61,4.63c0.59,0.32,1.2,0.64,1.81,0.97c0.28,0.14,0.71,0.41,1.15,0.69l1.3,0.8c1.66,0.94,3.35,1.91,5.08,2.89
	c3.48,1.87,7.08,3.72,10.77,5.31c0.83,2.15,1.87,4.22,3.09,6.26c5.27,8.68,14.13,15.8,25.13,20.55c3.15,1.35,6.46,2.53,9.91,3.51
	c1.72,0.49,3.48,0.92,5.27,1.33c1.79,0.4,3.23,0.64,4.75,0.9c6,0.95,11.73,1.17,17,0.94c5.32-0.23,9.95-0.91,14.87-1.76
	c4.88-0.86,9.78-1.9,14.66-3.05c5.98-1.41,11.92-2.96,17.7-4.43c4.9-1.25,9.7-2.42,14.37-3.41c2.45-0.72,5.43-0.06,7.83,0.76
	c2.4,0.83,4.2,1.82,4.2,1.82c8.59-1.26,16.06-3.53,22.86-6.18c13.3-5.28,24.15-12.19,36.33-17.85c8.11-3.76,16.84-7,27.08-8.74
	c7.39-1.26,14.23-3.03,20.82-5.07c5.2-1.63,10.22-3.37,15.15-5.25c17.21-6.45,34.04-13.85,52.67-16.71
	c4.44-0.69,9.35,4.72,13.66,4.37c7.71,0.87,17.02,1.63,24.67,1.98c3.84,0.12,7.22,0.16,9.74-0.24c2.53-0.41,4.16-1.26,4.39-2.72
	C555.26,297.46,552.17,286.66,543.33,276.74z M164.4,294.83c-0.06-0.11-0.12-0.21-0.18-0.32c-0.57-1.03-1.38-2.15-2.6-1.85
	c0.24-0.38,0.41-0.76,0.61-1.14c0.1,0.12,0.2,0.24,0.29,0.36c0.88,1.12,1.49,2.14,2.59,1.9
	C164.86,294.13,164.63,294.48,164.4,294.83z"/>
<path class="st1" d="M32.96,720.15c2.3-2.03,4.59-4.06,6.8-6.01c-2.7,1.92-5.37,3.83-7.96,5.68C32.2,719.9,32.58,720,32.96,720.15z
	 M74.48,724.91c-4.75,2.29-11.55,5.55-18.01,7.16c3.72,0.21,3.72,0.21,8.07-2.04c-4.34,2.27-13.01,6.8-13.01,6.8
	c3.09,2.61,22.81-1.26,35.23-5.31c-3.58,1.81-7.89,3.98-12.33,6.22c-4.4,2.29-8.94,4.65-13,6.77c2.66,0.43,5.47,0.79,8.37,1.09
	c3.44-0.6,6.99-1.34,10.01-2.05l-4.31,2.2c15.84-2.93,24.97-7.83,36.4-11.46c-6.97-0.75-12.88-2.1-17.09-4.63
	C89.58,727.22,82.55,725.84,74.48,724.91z M788.74,891.81c-0.29-1.84-0.78-3.47-1.36-5.35c-2.36-7.24-6.8-14.15-12.06-19.99
	c-5.29-5.88-11.36-10.81-18.09-15.16c-1.69-1.11-3.39-2.09-5.18-3.12c-1.72-0.96-3.79-2.01-4.91-2.72
	c-2.68-1.57-5.46-3.13-8.34-4.66c-5.76-3.07-11.89-6.04-18.33-8.86c-6.46-2.72-13.23-5.24-20.21-7.56
	c-6.97-2.36-14.18-4.35-21.54-5.98c-30.02-8.14-60.34-15.25-91.33-21.69c-7.76-1.55-15.53-3.22-23.38-4.68
	c-7.86-1.43-15.75-2.86-23.69-4.31c-7.95-1.43-15.97-2.62-24.04-3.93c-5.93-0.95-11.9-1.92-17.91-2.88
	c-5.22-0.83-10.49-1.66-15.83-2.51c-4.54-0.72-9.06-1.28-13.6-1.82c-0.91-0.02-1.82-0.05-2.76-0.07c-4.33-0.02-9.28,0.26-14.59,0.58
	c-5.56,0.43-11.11,0.85-16.36,1.25c-10.77,0.86-20.68,1.37-22.22,0.07c-0.49-1.34-0.48-2.61-0.04-3.88c0.49-1.5,1.51-2.72,3.01-4.48
	l1.27-1.6l0.77-1l0.43-0.55c0.15-0.19,0.22-0.39,0.79-0.56c3.49-1.34,6.97-2.67,10.44-4.01c-3.69,0.68-7,1.17-10.33,1.64
	c9.83-4.15,14.04-6.87,17.74-9.89c3.59-2.95,6.77-6.26,11.32-9.74l0.07-0.06c3.81,0.28,7.59-0.64,10.33-1.59
	c2.77-0.97,4.73-2.09,5.55-2.56c2.01-1.15,3.96-2.12,5.85-2.93c1.87-0.83,3.79-1.39,5.34-2.3c0.4-0.21,0.76-0.45,1.11-0.69
	c0.16-0.13,0.34-0.24,0.48-0.38l0.11-0.1c0.05-0.08,0.02,0.12,0.24-0.47l0.96-2.49l0.12-0.31c0.05-0.16,0.05-0.06,0.17-0.54
	l0.54-2.18c0.34-1.46,0.64-2.94,0.91-4.42c0.26-1.48,0.49-2.97,0.67-4.47c0.18-1.62,0.31-3.42,0.38-5.13
	c0.13-3.54,0.11-6.85-0.27-10.56c-0.38-3.72-1.03-7.47-1.94-11.12c-0.91-3.61-2.12-7.1-3.54-10.56c-0.7-1.69-1.51-3.48-2.29-5.01
	c-0.76-1.47-1.56-2.93-2.42-4.37c-1.73-2.9-3.53-5.61-5.69-8.36c-2.21-2.81-4.55-5.37-6.98-7.73c-4.85-4.69-9.77-8.21-14.13-10.84
	c-4.38-2.64-8.25-4.44-11.49-5.79c-6.43-2.64-10.77-3.76-12.33-4.35c-3.74-1.26-7.69-2.55-11.86-3.68c-6.56-1.46-13-2.44-19.36-3.21
	c-16.96-1.92-32.9-1.77-47.5-1.14l-21.13,1.09c-6.76,0.37-13.18,0.66-19.58,0.81c-36.78,5.37-50.37,1.79-60.93-2.44
	c-5.27-2.11-9.74-4.23-15.89-5.15c-6.15-0.95-13.97-0.62-25.88,2.34c-11.82,3.25-22.8,5.89-33.3,8.23
	c-12.75,2.82-24.8,5.12-36.62,7.19c-6.15,2.34-13.47,5.18-19.63,6.94c-17.84,6.09-16.27,1.16-24.8,3.07l3.88,0.26
	c-1.91,0.4-3.86,0.8-5.78,1.19c9.59,2.52,16.2,6.3,16.97,11.97c0.3,2.25-0.21,4.79-1.93,7.75c-0.76,2.46,6.88,3.09,16.57,3.32
	c9.71,0.3,21.45,0.22,29.01,1.12c10.01,6.4-6.46,16.43-22.55,26.56c-2.3,1.84-4.67,3.74-7.07,5.65c-0.37-0.17-0.75-0.29-1.12-0.39
	c-2.1,1.38-4.13,2.73-5.98,4.05c6.42,0.4,12.6,0.86,18.36,1.6c2.02-0.48,4.18-0.82,6.57-0.96c-0.9,0.4-2.01,0.91-3.2,1.45
	c8.01,1.22,14.98,2.89,20.1,5.51c4.11,2.7,9.96,4.24,16.88,5.28c2.76-0.75,5.63-1.42,8.74-1.96c-2.89,0.77-4.75,1.55-6.08,2.32
	c3.62,0.43,7.51,0.72,11.55,0.95c-1.87,1.92-2.81,3.88-9.96,5.77c6.11,0.84,12.75-0.06,20.01-2.5c-5.29,1.82-10.57,3.1-17,4.72
	c2.23-0.2,3.83,0.07,3.45,1.2c-1.07,0.9-2.42,1.54-3.91,2.03c16.95,2.1,32.64,5.09,41.05,11.06c-1.54,1.36-3.06,2.74-4.53,4.14
	c-12.6,12.08-22.64,25.6-31.74,39.14c-9.09,13.56-17.25,27.12-25.71,39.95c-2.59,3.94-5.21,7.82-7.88,11.63
	c-1.35,1.9-2.7,3.79-4.05,5.67c-3.61,1.81,2.89,3.99,5.48,5.39c5.37,2.5,9.39,3.67,13.11,4.59c3.59,0.8,7.36,1.72,11.02,2.62
	c4.16,0.82,6.74,2.71,8.13,4.52c0.7,0.9,1.12,1.76,1.35,2.4c0.29,0.74,0.46,1.18,0.46,1.18c6.85,2.55,13.81,4.72,20.89,6.55
	c3.95,0.99,7.82,1.96,11.62,2.91c4.17,1.02,8.36,1.94,12.55,2.79c4.12,0.83,8.25,1.58,12.4,2.25l3.11,0.49
	c1.07,0.15,1.92,0.35,3.49,0.39c2.81,0.13,5.61,0.27,8.41,0.4c11.16,0.48,22.12,0.78,32.94,0.95l8.09,0.11
	c0.6,0.05,1.51-0.08,2.36-0.16l2.55-0.27l5.07-0.54c6.63-0.69,13.28-1.39,19.99-2.09c6.48-0.65,13.01-1.31,19.61-1.98
	c6.49-0.64,12.97-1.28,19.12-1.68c16.54-1.15,33.11-2.31,49.58-2.67c8.13-0.06,16.33-0.03,24.68,0.12c4.15,0.1,8.36,0.2,12.65,0.3
	c2.09,0.08,4.36,0.12,6.35,0.24c1.99,0.14,4,0.27,6.02,0.41c11.65,0.84,23.01,1.44,34.02,1.84c8.26,0.28,15.93,0.36,23.77,0.3
	c12.25-0.12,24.22-0.17,36.05-0.72c41.34-1.37,80.79-4.28,121.59-2.96c9.61,0.32,21.75,8.52,31.35,8.92
	c8.68,1.46,18.19,2.78,27.55,3.77c9.26,0.83,17.86,2.26,25.39,5.12c3.73,1.43,7.14,3.23,10.01,5.48c2.88,2.25,5,5.06,6.61,7.61
	c0.67,1.3,1.39,2.53,1.9,3.59c0.48,1.06,0.93,1.98,1.37,2.68c0.89,1.52,1.73,1.59,2.64,1.2c1.15-0.5,2.33-1.37,3.48-2.7
	c0.57-0.67,1.15-1.44,1.68-2.35c0.47-0.92,0.92-1.97,1.31-3.16c0.87-2.39,1.19-5.21,1.21-8.58
	C789.22,895.31,789.04,893.62,788.74,891.81z M184.96,748.91c-0.02-2.76-2.27-4.85-7.77-5.97c-5.5-1.15-14.26-1.34-27.26-0.14
	c-2.12,0.21-4.25,0.42-6.39,0.63c0.82,2.47,0.84,5.32-0.15,8.64C137.16,757.6,159.66,752.73,184.96,748.91z"/>
<path class="st1" d="M915.02,518.06c0.01,0.01,0.03,0.02,0.05,0.02c0,0-0.01-0.01-0.01-0.01
	C915.02,518.06,915.04,518.07,915.02,518.06z M915.75,518.63c-0.01-0.03-0.06-0.06-0.08-0.09c0.06,0.07,0.13,0.15,0.13,0.18
	C915.78,518.68,915.77,518.68,915.75,518.63z M914.93,518.03c0.02,0,0.1,0.02,0.27,0.01C915.05,518.05,914.96,518.03,914.93,518.03z
	 M915.07,518.08c0.06,0.02,0.13,0.08,0.2,0.12c-0.04-0.02-0.07-0.06-0.11-0.08C915.11,518.1,915.1,518.1,915.07,518.08z
	 M913.6,539.49c2.27-1.66,5.57-3.92,8.88-4.96c-2.08-0.3-2.07-0.3-4.15,1.3c2.06-1.6,6.18-4.79,6.18-4.79
	c-2.12-2.24-12.31,0.19-18.5,2.81c3.43-2.49,8.16-6.17,11.96-9.16c-1.51-0.43-3.09-0.82-4.7-1.16c-1.78,0.33-3.6,0.78-5.12,1.23
	l2.01-1.57c-8.15,1.64-12.37,5.2-18.05,7.58c3.83,0.85,7.2,2.17,9.79,4.26C905.04,537.07,909.07,538.46,913.6,539.49z
	 M955.89,647.12c-0.18-1.12-0.36-2.24-0.55-3.37c-0.38-2.24-0.81-4.52-1.25-6.72c-0.46-2.23-0.89-4.36-1.4-6.44
	c-0.53-2.04-1.07-4.04-1.67-6.03c-1.72-5.23-4.4-10.49-9.16-14.78c-4.01-3.93-8.75-6.92-13.62-9.29c-4.08-2.08-8.56-3.48-13.02-4.99
	c-3.58-2.06-6.09-4.63-6.93-8c-0.44-1.78-0.47-3.76,0.1-6.03c0.11-1.92-4.17-2.61-9.47-3.09c-5.28-0.56-11.63-0.79-15.74-1.7
	c-6.11-5.29,1.42-12.82,8.83-20.26c1.01-1.37,2.06-2.78,3.11-4.21c0.22,0.15,0.44,0.25,0.65,0.34c0.96-1.01,1.89-2.02,2.72-2.99
	c-3.52-0.52-6.91-1.06-10.09-1.85c-1.02,0.31-2.13,0.52-3.4,0.54c0.43-0.29,0.96-0.65,1.53-1.04c-4.43-1.21-8.36-2.76-11.39-4.92
	c-2.51-2.23-5.81-3.67-9.59-4.63c-1.36,0.53-2.79,1-4.37,1.37c1.43-0.55,2.32-1.12,2.92-1.7c-1.97-0.43-4.06-0.74-6.22-1.01
	c0.75-1.48,1.01-2.98,4.55-4.34c-3.32-0.78-6.73-0.27-10.23,1.57c2.55-1.38,5.19-2.25,8.38-3.38c-1.15,0.11-2.02-0.13-1.96-1.02
	c0.45-0.69,1.08-1.16,1.81-1.52c-12.54-2.83-24.04-6.5-27.17-15.63l-0.83,0.05l-0.42,0.03l-0.58,0.07l-2.31,0.29
	c-18.78,2.2-27.11,0.63-28.48-3.52c-12.41,2.69-25.71,5.66-35.85,6.84c-8.43,0.74-17.09,1.19-25.73,1.79
	c-4.36,0.33-8.7,0.65-13.03,0.98c-4.36,0.37-9.1,0.61-13.18,1.26c-2.27,1.94-4.42,3.84-6.21,5.68c-2.96,0.5-5.88,1.02-8.43,1.49
	c-3.99,0.88-7.37,1.48-9.36,1.11c-1.82-2.27,4.5-4.55,11.06-6.82c-1.27-0.18-2.55-0.35-3.84-0.53c-0.91,0.17-1.83,0.35-2.74,0.52
	c-0.8,0.45-1.67,0.88-2.34,1.38c-0.63,0.51-1.22,1.03-1.78,1.56c-1.13,1.05-2.12,2.12-2.95,3.18c-0.56,3.07-1.63,6.19-1.8,8.74
	c-2.03-1.94-0.92-5.2,1.8-8.74c0.32-1.59,0.53-3.14,0.53-4.55c-4.49,1.3-9.05,2.77-13.66,4.46c-1.15,0.43-2.3,0.86-3.47,1.3
	c-1.04,0.46-1.99,0.95-2.99,1.45c-1.98,0.99-3.97,2.04-5.97,3.14c-0.85,1.21-1.67,2.41-2.34,3.54c0.58-0.97,1.18-2.08,1.81-3.24
	c-1.08,0.61-2.17,1.23-3.28,1.85c-1.74,2.44-2.77,6.06-4.43,10.15c-0.4,1.01-0.82,2.06-1.25,3.14c-0.21,0.53-0.43,1.07-0.65,1.62
	c-0.17,0.54-0.34,1.08-0.51,1.63c-0.65,2.19-1.18,4.45-1.81,6.71c-11.35,3.19-18.98,9.49-26.46,19.93l-1.3,1.86l-1.18,1.75
	l-0.16-0.02c-0.05,0,0.02,0.01,0.22,0.04c0.87,0.13,1.77,0.27,2.71,0.41c4.51,0.65,9.33,1.34,14.17,2.04
	c4.23,0.6,8.46,1.21,12.61,1.8c3.52,0.8,8.15-0.26,8.06,6.19c0.09,0.85-0.17,1.99-0.68,3.26c-0.56,1.35-1.35,2.84-2.43,4.52
	l-0.82,1.25l-0.43,0.64l-0.22,0.32l-0.03,0.04l-0.01,0.02l0.92,0.05l3.68,0.18l7.36,0.36c14.29,0.71,28.54,1.41,42.8,2.11
	c-0.2,0.23-0.39,0.46-0.6,0.7l-0.09,0.11l3.7,0.21l7.23,0.4l-6.93,12.38l-7.57,0.38l4.59,4.95l-23.15,41.37l46.51,18.91
	c7.79,3.17,15.5,4.65,22.17,5.02c6.71,0.38,12.45-0.23,17.34-1.17c9.74-1.94,16.56-5.03,21.59-7.43
	c9.28-4.31,19.09-8.21,30.52-10.68c8.23-1.76,15.77-3.99,22.96-6.35c2.81-0.9,5.61-1.89,8.34-2.84c1.3-0.47,2.9-0.96,3.78-1.44
	l2.97-1.41c7.01-3.33,15.16-6.83,24.68-9.45c2.38-0.7,4.83-1.25,7.36-1.78c2.54-0.56,5.15-1.05,7.79-1.3
	c2.64-0.26,5.32-0.27,7.84,0.18c2.51,0.46,4.79,1.47,6.45,2.94c1.62,1.4,1.72,4.78,1.53,8c-0.17,3.15-0.44,6.17,0.61,7.83
	c0.74,1.8,1.68,3.65,3.09,5.36c0.3,0.43,0.75,0.9,1.15,1.35c0.43,0.47,0.77,0.88,1.32,1.41c1,1.01,2.04,1.96,3.16,2.78
	c4.38,3.39,9.46,5.09,13.7,5.46c4.31,0.32,7.74-0.69,9.71-2.06c1.95-1.44,2.68-2.97,2.2-4.36c-0.54-3.16-1.52-6.4-1.87-9.61
	c-0.38-3.22-0.18-6.43,0.78-9.1c0.37-1.07,0.94-2.11,1.58-2.92c1.6-1.04,3.52-2.29,3.08-2.01l0.02-0.05l0.07-0.18l0.27-0.73
	l0.54-1.48l0.28-0.74l0.14-0.37L955.89,647.12z M732.38,526.15c-1.22,0.26-2.45,0.52-3.65,0.78c-1.15,0.29-2.19,0.64-3.2,0.98
	c-2.01,0.7-3.74,1.48-4.91,2.42c-0.26-0.37-0.58-0.7-0.89-1.05c0.45-0.13,0.9-0.25,1.35-0.38c2.3-0.63,4.58-1.25,6.59-1.95
	c2.11-0.65,4.07-1.3,5.42-2.19c0.2,0.39,0.46,0.75,0.76,1.09C733.35,525.95,732.87,526.05,732.38,526.15z M950.62,653.72l-0.08,0.05
	l-0.02,0.01l-0.01,0c-0.15,0.1-0.24,0.16-0.35,0.23c0.18-0.12,0.39-0.26,0.64-0.41L950.62,653.72z M807.9,499.95
	c1.23,0.02,2.42,0.06,3.55,0.13c3.43-2.28,7.61-4.56,12.04-6.87c-3.93-0.16-8-0.27-12.24-0.34c-2.11,1.19-4.65,2.5-7.16,3.77
	c-0.54-0.37-1.1-0.73-1.7-1.08c0.13-0.75,0.5-1.55,2.55-2.75c-0.17,0-0.33,0-0.49,0.01c-2.47-0.01-4.98,0-7.58,0.05
	c1,0.41,1.94,0.84,2.85,1.28c-6.84,1.51-14.64,2.1-14.75,4.86C787.99,500.71,798.95,499.77,807.9,499.95z M870.84,522.83
	c1.1-0.1,2.19-0.2,3.3-0.31c-0.74-1.97-1.1-4.21-1-6.79c2.6-4.1-8.68-1.16-21.54,1.38C852.31,521.47,857.39,523.93,870.84,522.83z"
	/>
<path class="st1" d="M584.19,647.67c0-0.05-0.01-0.23-0.02-0.44L584.19,647.67z M529.84,530.19c0.49,0.26,0.98,0.52,1.44,0.8
	c1.3-1.58,2.85-2.99,4.45-4.38c-1.62-0.89-3.25-1.78-4.89-2.69c-0.75,0.74-1.67,1.53-2.6,2.29l-0.69-1.39
	c0.02-0.71,0.14-1.42,0.87-2.18l-0.19-0.09c-0.94-0.48-1.88-0.96-2.83-1.44c0.37,0.61,0.73,1.21,1.09,1.81
	c-2.54,0.14-5.36-0.92-5.44,1.78C522.12,527,526.25,528.33,529.84,530.19z M584.18,646.93c-0.1-4.01-0.67-8.22-0.99-12.82
	c-0.12-1.82-0.19-3.71-0.12-5.66c0.01-1.76-0.68-3.84-1.89-5.84c-0.31-0.48-0.63-0.98-0.95-1.49c-0.24-0.51-0.6-0.99-1.02-1.46
	c-0.86-0.93-2.12-1.75-3.25-2.56c-1.83-3.12-1.74-6.17-0.85-9.13c0.44-1.47,1-2.9,1.55-4.26c0.27-0.66,0.55-1.33,0.82-2.01
	c0.33-0.66,0.69-1.32,1.07-1.96c0.41-1.04,0.88-2.08,1.38-3.12c0.08,0.2,0.17,0.37,0.25,0.52c0.45-0.67,0.9-1.33,1.32-1.97
	c-1.41-1.63-2.9-3.17-4.39-4.72c-0.49,0.04-1.04-0.03-1.63-0.3c0.19-0.19,0.45-0.4,0.74-0.63c-2.05-2.25-4.28-4.54-6.19-7.18
	c-1.57-2.61-3.74-4.52-6.27-6.04c-0.89,0.3-1.82,0.54-2.85,0.65c0.93-0.31,1.5-0.73,1.89-1.2c-1.31-0.72-2.69-1.35-4.12-1.93
	c0.46-1.34,0.59-2.77,2.91-3.54c-2.22-1.29-4.45-1.28-6.72,0.01c1.65-0.97,3.36-1.46,5.45-2.06c-0.76-0.07-1.34-0.45-1.32-1.3
	c0.29-0.6,0.69-0.97,1.17-1.2c-8.37-4.67-16.04-9.83-18.33-19.2c-0.73-0.09-1.45-0.19-2.17-0.28c-8.81-1.17-12.16-4.31-12.68-8.67
	c-5.13,0.28-10.61,0.46-14.53-0.58c-6.57-2.53-12.59-6.05-18.71-9.65c-1.21,1.01-2.35,2.05-3.43,3.15
	c-2.91-1.43-5.71-2.69-6.54-4.54c0.13-2.7,2.92-1.61,5.46-1.69l-1.06-1.83l-0.97-0.48c-1.45,0.47-2.84,1.27-4.03,2.31
	c-1.16,2.27-2.51,4.51-3.53,6.51c0.12-2.44,1.55-4.78,3.53-6.51c0.6-1.18,1.14-2.36,1.56-3.5c-3.61-1.68-7.4-3.19-11.46-4.29
	c-0.71,0.42-1.41,0.85-2.04,1.31c0.53-0.42,1.14-0.89,1.77-1.38c-0.56-0.14-1.11-0.29-1.68-0.43c-2.69,1.98-8.07,5.94-13.46,9.9
	c-4.92-6.15-10.03-8.81-15.27-9.11c-9.75-0.58-20.05,6.84-30.53,14.53c-3.21,2.34-6.44,4.72-9.66,6.9
	c-2.72,1.85-5.44,3.52-8.15,4.94c-2.78,1.88-7.66-1.59-7.66-1.59c-5.05,1.8-9.45,4.28-13.57,7.09
	c-8.09,5.48-15.04,12.25-23.37,17.69c-2.77,1.83-5.7,3.46-8.87,4.88c-3.2,1.42-6.48,2.58-10.47,3.43c-5.77,1.24-11.71,3.24-17.61,6
	c-4.65,2.18-9.28,4.84-13.68,7.99c-7.7,5.51-14.73,12.68-19.65,20.7l-1.76,3.02c-0.58,1.04-1.18,2.21-1.72,3.29
	c-0.57,1.08-1.04,2.19-1.43,3.31c-0.41,1.11-0.83,2.18-1.15,3.28c-1.28,4.39-1.88,8.65-2.06,12.71c0,1.93-1.49,3.6-2.7,5.56
	c-1.33,1.88-2.37,4.07-1.98,6c0.13,3.51,0.9,7.31,2.54,10.63c1.68,3.31,3.93,6.1,6.52,7.64c1.18,0.84,2.51,1.32,3.67,1.62
	c1.11,0.34,2.26,0.34,3.21,0.21c1.87-0.27,3.19-1.09,3.9-2.33c2.23-3.04,4.24-6.31,7-8.71c0.35-0.3,0.7-0.59,1.06-0.85l0.49-0.35
	l0.01,0c-0.04,0.03,0.08-0.05,0.21-0.13c0.12-0.07,0.23-0.14,0.34-0.19l0.91-0.4c0.49-0.21,0.83-0.28,1.41-0.45
	c2.22-0.66,6.34-1.03,9.58-0.5c0.85,0.11,1.6,0.27,2.24,0.42c0.77,0.97,1.67,2.09,2.73,3.43l0.02,0l0.04,0l0.09,0.01
	c0.81,0.03,1.85-0.04,3.61-0.25c3.46-0.45,10.04-0.93,19.15-1.21c3.26-0.12,6.91-0.24,10.87-0.45c3.89-0.23,7.82-0.46,11.8-0.69
	c0.72-0.12,1.45-0.24,2.19-0.36c13.57-2.32,29.46-9.11,37.07-7.61c2.96,0.85,5.89,1.69,8.8,2.53c6.51,1.9,12.93,3.8,19.32,5.58
	c1.42-1.68,2.92-3.36,4.22-5.04c11.72,1.33,26.31-5.23,38.3-9.07c0.03-0.01,0.07-0.02,0.11-0.04c-1.11,5.31,6.63,4.07,8.56,3.72
	c9.66-1.65,13.96,0.19,22.15,1.29c1.53-0.07,3.05-0.21,4.57-0.38c8.12-0.95,16.03-2.95,24.42-2.54
	c22.98-6.08,19.98,15.52,34.71,9.96c3.63-1.58,7.05-2.72,10.37-3.54c2.01-0.49,3.99-0.87,5.94-1.16c2.02-0.3,3.83-0.48,4.67-0.36
	c0.33-0.45,0.64-0.9,0.57-1.2l0-0.06l0-0.01l-0.01-0.08l-0.01-0.01l-0.03-0.05l-0.13-0.17c-0.03-0.11,0-0.2,0.01-0.26
	c0.01-0.14,0.03-0.2,0.05-0.23l-0.15-0.95l-0.1-0.61l-0.01-0.08l-0.01-0.04l0-0.02c0.12,0.75,0.21,1.28,0.28,1.68
	c0.1-0.12,0.23,1.57,0.28,2.4l-0.03-0.58L584.18,646.93z M306.74,649.38l-0.43-0.55l-0.03-0.04l-0.01-0.02l-0.01-0.01
	c1.45,1.82-0.34-0.42-0.55-0.7c0.08,0.1,0.41,0.52,1.15,1.45C306.82,649.47,306.78,649.43,306.74,649.38z M493.58,539.69
	c0.02-0.43,0-0.85,0-1.28c2.13,0.32,4.33,0.79,5.81-0.32c-0.02,0.44-0.01,0.86,0.01,1.27C497.26,539.06,495.06,538.59,493.58,539.69
	z M557.41,559.65c2.08,1.46,5.01,2.5,9.78,3.02l2.37,0.28c-0.44-2.06-0.6-4.31-0.32-6.81c1.26-1.77-0.58-2.49-3.77-2.59
	c-3.28-0.07-7.13,0.32-11.38,0.61C554.37,556.33,555.37,558.2,557.41,559.65z M592.35,611.18c0.01-0.19,0.03-0.39,0.04-0.62
	c-0.38,0.44-0.75,0.87-1.12,1.29C591.69,611.57,592.03,611.37,592.35,611.18z M583.93,645.12l0.07,0.45l0.01,0.01l0,0.01l0,0
	c-0.01-0.04-0.01-0.06-0.01-0.08c0.01,0.05,0.02,0.11,0.03,0.17c-0.02-0.14-0.07-0.41-0.14-0.85c0,0,0,0.02-0.01,0.02L583.93,645.12
	z M592.22,587.47c-1.34-1.83-3.36-3.16-5.04-3.5c2.07-0.54,5.01-0.68,7.02-0.05c-0.35-1.38-0.8-2.75-1.34-4.1
	c-0.79-0.96-1.71-1.78-2.54-2.32c0.46-0.03,0.89,0,1.34,0.01c-2.06-1.91-4.02-2.5-5.84-2.58c-1.82-0.08-3.51,0.31-5.31,0.5
	c2.1,2.07,3.65,4.64,4.51,7.66c1.14,3.19,2.61,6.29,3.97,9.53c1.15-0.18,2.78,0.01,3.84,1.42c-0.44-1.55-0.45-1.58-1.45-1.63
	c1.06-0.04,2.85,0.47,2.8,0.53C594.27,591.48,593.59,589.28,592.22,587.47z"/>
<path class="st1" d="M714.41,90.08c0.08,0.02,0.15,0.04,0.22,0.06c-0.07-0.02-0.13-0.04-0.2-0.06
	C714.42,90.09,714.42,90.09,714.41,90.08z M659.3,79.1c1.73,0.25,3.47,0.49,5.22,0.74c-0.16-2.1,0.39-4.35,1.87-6.75
	c6.19-3.05-13.09-4.04-34.33-4.82C631.21,72.68,638.06,76.18,659.3,79.1z M583.9,40.88c1.1,0.33,2.17,0.66,3.18,1
	c3.98-1.37,8.54-2.55,13.21-3.69c-3.57-1.11-7.2-2.23-10.86-3.37c-2.23,0.63-4.92,1.28-7.6,1.89c-0.32-0.49-0.66-0.99-1.04-1.48
	c0.4-0.7,1.04-1.38,3.22-2.04c-0.14-0.04-0.28-0.08-0.42-0.12c-2.1-0.61-4.21-1.21-6.37-1.83c0.66,0.65,1.27,1.3,1.85,1.95
	c-6.39-0.23-12.95-1.65-14.43,1.01C566.23,36.63,575.88,38.5,583.9,40.88z M681.23,152.53c0.25-1.82,1.1-3.68,2.87-5.59
	c1.02-1.73-3.99-3.99-10.7-6.24c-6.71-2.25-15.12-4.5-20.49-6.52c-6.29-6.82,7.45-11.98,21.3-16.49c2.07-0.93,4.19-1.89,6.34-2.86
	c0.23,0.22,0.48,0.39,0.73,0.56c1.83-0.59,3.6-1.19,5.25-1.79c-4.59-1.78-9.07-3.52-13.22-5.32c-1.61-0.04-3.3-0.2-5.12-0.59
	c0.75-0.14,1.69-0.3,2.69-0.48c-5.77-2.6-10.79-5.28-14.27-8.26c-2.69-2.86-6.96-5.19-12.23-7.16c-2.29,0.13-4.66,0.2-7.2,0.12
	c2.4-0.14,3.99-0.45,5.17-0.85c-2.79-0.95-5.82-1.82-8.99-2.63c1.78-1.24,2.84-2.63,8.84-2.97c-4.72-1.67-10.18-2.05-16.33-1.15
	c4.5-0.68,8.91-0.89,14.31-1.1c-1.81-0.2-3.04-0.68-2.56-1.51c1-0.54,2.18-0.83,3.46-0.98c-18.02-6.1-34.38-12.29-35.41-21.92
	c-1.75-0.2-3.49-0.39-5.21-0.59c-21.13-2.43-27.94-6.02-27.14-10.41c-12.85-0.42-26.52-1.01-35.79-2.56
	c-15.15-3.36-28.57-7.67-42.31-12c-3.48,0.85-6.89,1.72-10.06,2.68c-6.62-1.77-13.05-3.36-14.31-5.3c1.49-2.66,8.04-1.24,14.44-1.01
	c-0.59-0.65-1.2-1.3-1.85-1.95c-0.73-0.2-1.48-0.4-2.22-0.6c-3.84,0.29-7.69,0.92-11.13,1.8c-3.93,2.04-8.21,4.26-11.67,6.06
	c1.35-2.41,5.93-4.58,11.67-6.06c2.03-1.1,3.9-2.2,5.45-3.29c-8.35-2.12-17.26-4.05-27.04-5.62c-1.97,0.33-3.91,0.68-5.71,1.07
	c1.54-0.36,3.26-0.75,5.05-1.17c-1.34-0.21-2.68-0.41-4.05-0.63c-7.61,1.67-22.84,5.01-38.07,8.35
	c-9.93-6.66-22.03-9.86-36.17-10.47c-26.1-1.14-59.7,6.63-93.45,19.94c-10.29,4.03-20.98,8.74-31.61,14.03
	c-9.02,4.5-18.04,9.48-26.86,14.96c-3.24,2.17-7.33,4.14-11.3,5.89c-3.96,1.76-7.79,3.33-10.41,4.38l-64.66,25.7l53.3,65.51
	c3.86,4.75,6.54,7.4,6.54,7.4c2.65,2.11,5.44,4.23,8.18,5.88c1.38,0.86,2.77,1.68,4.18,2.47c1.39,0.77,2.71,1.4,4.09,2.06
	c5.53,2.65,10.6,4.26,15.38,5.47c9.5,2.31,16.98,2.56,23.2,2.42c6.21-0.19,11.21-0.91,15.43-1.7c2.07-0.4,4.04-0.84,5.68-1.27
	c1.4-0.41,2.78-0.82,4.16-1.23c4.92-1.48,9.69-3.03,14.39-4.6l-7.38,5.85l99.18-24.76c4.56-1.14,9.07-2.32,13.55-3.51l4.77,18.4
	c13.86-6.34,29.85-13.53,46.71-24.36l9.33-5.99c1.86,0.23,3.77,0.45,5.82,0.68c3.67,0.11,7.33,0.16,10.99,0.17
	c19.63,0.07,39.23-0.92,58.89,0.62c57.04-2.88,40.18,18.14,77.19,14.79c9.22-1.04,17.62-1.62,25.51-1.87
	c9.57-0.3,18.39-0.09,26.81,0.47c4.59-0.75,10.02-1.46,14.45-1.6c6.48-0.47,9.19,0.2,11.01,1.04c1.83,0.83,2.82,1.81,5.7,2.09
	l-2.41-1.13c1.3,0.15,2.61,0.31,3.91,0.46C684.31,161.44,680.6,157.16,681.23,152.53z M503.92,45.88
	c-5.17-0.58-10.44-1.32-14.62-0.4c0.24-0.42,0.43-0.84,0.6-1.26c5.15,0.58,10.4,1.31,14.57,0.4
	C504.22,45.05,504.05,45.47,503.92,45.88z M713.39,89.65c0.04,0.02,0.05,0.03,0.09,0.06c0.2,0.12,0.52,0.25,0.86,0.36
	c-0.01,0-0.02,0-0.04-0.01c0.05,0.01,0.07,0.02,0.11,0.03l-0.01,0c0.01,0,0.02,0.01,0.03,0.01c0.09,0.03,0.18,0.05,0.25,0.07
	c-0.02,0-0.03,0-0.05-0.01c0.04,0.01,0.08,0.02,0.12,0.03c0.15,0.03,0.27,0.05,0.39,0.07c-0.25-0.02-0.5-0.09-0.77-0.17
	C714.02,89.95,713.67,89.8,713.39,89.65z M722.02,104.37c0.12,0.03,0.24,0.06,0.36,0.08l-1.99-3.9c-0.07,0.01-0.15,0.01-0.22,0.02
	L722.02,104.37z M718.79,91.18c0.06-0.02,0.11-0.06,0.17-0.09l-0.37-0.46C718.63,90.79,718.76,90.97,718.79,91.18z M719.62,90.74
	c-0.24,0.15-0.44,0.25-0.66,0.35l5.43,6.77c0.63,0.36,1.24,0.73,1.82,1.09L719.62,90.74z M722.55,104.49
	c1.04,0.24,2.04,0.5,2.96,0.77l-3.36-4.88c-0.55,0.05-1.1,0.11-1.65,0.16L722.55,104.49z M724.38,97.86
	c-0.8-0.47-1.62-0.93-2.47-1.4c-0.95-0.22-1.92-0.41-2.88-0.6l3.12,4.52c1.31-0.13,2.62-0.27,3.94-0.39L724.38,97.86z
	 M724.88,109.36l0.18-0.02l-2.52-4.85c-0.05-0.01-0.11-0.02-0.16-0.04L724.88,109.36z M713.71,91.18c0.03,0.14,0.07,0.29,0.07,0.41
	c-0.01-0.1-0.02-0.18-0.03-0.25C713.75,91.29,713.72,91.23,713.71,91.18z M717.74,94.62l-0.3,0.03l0.53,1.02
	c0.35,0.06,0.71,0.13,1.07,0.2l-3.88-5.62l2.24,4.32C717.51,94.59,717.62,94.6,717.74,94.62z M717.39,94.56
	c-0.02,0-0.03,0-0.05-0.01l0.05,0.1l0.04,0L717.39,94.56z M720.4,100.56c0.03,0,0.06-0.01,0.1-0.01l-2.53-4.88
	c-0.02,0-0.04-0.01-0.06-0.01L720.4,100.56z M717.4,94.66l-0.1,0.01l0.47,0.96c0.04,0.01,0.09,0.02,0.13,0.02L717.4,94.66z
	 M724.55,109.57c0.16,0.02,0.32,0.04,0.48,0.07l-0.15-0.29l-0.41,0.04L724.55,109.57z M721.06,109.74l3.41-0.34l-2.45-5.03
	c-5.22-1.19-11.52-2.04-16.57-2.12c4.9-0.65,9.81-1.18,14.73-1.67l-2.41-4.95c-1.35-0.24-2.66-0.43-3.87-0.59l3.41-0.37l-0.06-0.13
	c-12.39-2.26-20.55-0.84-29.97-0.75c5.15,2.23,9.27,4.76,11.75,7.78c3.28,3.16,8.06,6.14,13.55,9.11c3.39-0.37,8.01-0.66,12.38-0.29
	l-0.4-0.81C723.79,109.48,722.86,109.56,721.06,109.74z M715.15,90.24l2.09,4.3c0.04,0.01,0.07,0.01,0.11,0.02L715.15,90.24z"/>
<path class="st1" d="M441.73,300.5l23.96-14.56l-112.62-65.05c-2.08-1.2-4.33-2.42-6.68-3.56c-2.29-1.06-4.84-2.21-7.32-3.11
	c-10.56-3.81-19.89-5.46-27.26-6.26c-7.46-0.81-13.4-0.9-18.25-0.91c-5.89,0.01-10.11,0.16-13.13,0.12
	c-3.19-0.02-6.31-0.14-9.4-0.31c-3.33,0.86-7.3,1.76-10.59,2.09c-9.63,1.53-8.33-2.05-12.82-2.19l1.93,0.96
	c-1.01-0.06-2.03-0.12-3.04-0.19c4.55,3.88,7.52,8,7.32,12.64c-0.08,1.83-0.61,3.74-1.8,5.75c-1.3,3.59,15.37,7.69,23.06,11.54
	c1.49,2.17,1.5,4.19,0.53,6.1c-0.63,0.02-1.24,0.04-1.88,0.05c0.46,0.28,0.91,0.57,1.35,0.86c-0.19,0.28-0.42,0.56-0.65,0.83
	c-3.08,1.14-6.16,1.79-5.72,4.21c0.11,0.1,0.28,0.16,0.41,0.24c-2.53,1.66-5.47,3.26-8.42,4.85c-1.41,1.03-2.85,2.09-4.31,3.16
	c-0.17-0.2-0.36-0.37-0.55-0.52c-1.25,0.7-2.47,1.39-3.58,2.09c3.33,1.49,6.54,3.02,9.51,4.64c1.12-0.02,2.3,0.08,3.58,0.39
	c-0.52,0.16-1.16,0.37-1.85,0.58c0.16,0.09,0.3,0.18,0.45,0.27c-1.81,0.52-3.55,0.94-5.14,1.21c-7.01,0.64-13.9,0.58-20.84,0.34
	c-1.2-0.81-2.45-1.61-3.78-2.38c-2.77,0.85-6.76,1.89-10.35,1.78c1.92,0.96,1.92,0.96,4.5,0.13c-2.57,0.83-7.71,2.49-7.71,2.49
	c0.4,0.87,1.76,1.59,3.65,2.14c-0.17,0.18-0.35,0.36-0.52,0.54c-4.82,0.11-9.53,0.38-11.14-1.04c-0.16-2.82,4.67-3.32,8.66-4.75
	c-0.64-0.43-1.28-0.86-1.93-1.3l-1.61,0.03c-2.25,1.26-4.5,2.9-6.31,4.62c-1.61,2.97-3.53,6.04-5.01,8.72
	c-0.1-2.59,1.99-5.84,5.01-8.72c0.84-1.55,1.58-3.06,2.13-4.47c-3.09,0.15-6.24,0.39-9.49,0.74c-3.33,0.41-6.76,0.93-10.3,1.61
	c-1.14,0.85-2.31,1.74-3.37,2.64c0.88-0.78,1.87-1.64,2.89-2.55c-0.96,0.18-1.95,0.38-2.96,0.62c-2.22,1.91-5.56,4.78-9.45,8.12
	c-3.99,3.49-8.43,7.32-13.04,11.52c-4.98-1.27-9.96-1.55-15.04-0.76c-2.53,0.36-5.05,0.94-7.57,1.7c-2.54,0.83-5.09,1.9-7.62,3.12
	c-9.4,4.44-18.83,12.03-27.69,21.14l-0.42,0.42l-1.14,1.01l-2.46,2.27c-1.85,1.76-3.68,3.56-5.95,6.07
	c-1.02,1.11-2.34,2.65-3.45,4.02l-1.92,2.44l-0.93,1.25l-1.03,1.44c-0.69,0.98-1.35,1.96-2.01,2.97c-0.74,1.15-1.46,2.32-2.15,3.5
	l-1.04,1.83l-1.11,2.09c-0.74,1.45-1.36,2.71-2.1,4.37c-2.78,6.22-5.43,14.37-6.5,23.62c-1.14,9.47-0.43,19.85,2.1,29.22
	c2.48,9.4,7.01,18.72,12.68,26.31c5.54,7.43,11.7,12.92,17.25,16.86c5.32,3.74,10.34,6.29,14.43,8.01c4.07,1.7,7.74,2.85,10.71,3.59
	c3.11,0.79,5.69,1.25,8,1.57l1.69,0.22l1.53,0.15c0.22,0.02,0.58,0.06,0.69,0.06l0.31-0.02l0.63-0.04c2.97-0.18,5.94-0.39,8.88-0.61
	c-16.98,9.37-37.6,25.22-33.44,29.49c8.42,12.52,42.54,16.83,72.52,5.34c15.79-5.08,31.58-10.16,47.62-15.33
	c8-2.63,16.06-5.29,24.21-7.97c4.12-1.39,8.27-2.79,12.44-4.19c4.35-1.5,8.99-3.16,13.89-5.11c3.48-1.38,7.09-2.91,10.81-4.64
	c1.86-0.86,3.75-1.78,5.66-2.76l2.89-1.51l0.73-0.39l1.33-0.76c1-0.59,2.22-1.33,3.74-2.38c2.92-2.07,7.12-5.16,11.85-11.14
	c2.36-3.03,4.75-6.82,6.67-11.31c0.97-2.28,1.78-4.64,2.42-7.12c0.64-2.47,1.04-4.83,1.32-7.3c0.28-2.35,0.36-5.07,0.23-7.78
	c-0.12-2.7-0.46-5.36-1.04-8.02c-0.57-2.67-1.35-5.3-2.25-7.59c-0.88-2.3-2.07-4.83-3.11-6.62c-0.55-0.97-1.12-1.92-1.73-2.86
	c-0.6-0.93-1.27-1.91-1.8-2.6c-1.13-1.51-2.36-3-3.61-4.37c-1.09-1.16-2.23-2.29-3.4-3.37c-1.17-1.07-2.09-1.8-3.19-2.67
	c-2.22-1.71-4.29-3.06-6.23-4.19c1.33-0.4,2.61-0.74,3.81-1.01c2.69-0.59,5.04-0.79,7.19-0.83c2.16-0.08,4.09,0.07,5.91,0.3
	c3.63,0.44,6.78,1.26,10.34,1.14c3.59-0.19,7.59-1.27,12.86-4.47l21.01-12.77l91.19-19.8L441.73,300.5z M217.49,248.52
	c-1.64,0.89-3.27,1.78-4.86,2.64c0.19,0.15,0.37,0.31,0.55,0.52C214.64,250.6,216.09,249.54,217.49,248.52z"/>
<path class="st1" d="M917.46,591.32l4.72-3.25l10.6,3.57l15.44-7.13l-17.13-2.58l10.05-6.92l-49,1.05l-6.16-0.93
	c-0.83-0.13-1.64-0.27-2.42-0.43c1.04,0.57,1.68,0.93,2.31,1.14l0.99,0.33l-1.05,0.02l-7.65,0.16c0.51,1.17,3.22,2.53,6.99,3.83
	l14.39,4.96l-15.26,0.33l-1.53,0.03c0.43,0.29,0.87,0.59,1.37,0.89l12.91,7.76l9.56-6.58L917.46,591.32z M987.37,718.99
	c-1.74-4.26-3.94-5.86-6-7.58c-0.04-0.04-0.1-0.08-0.16-0.12c3.94,0.69,3.65-1.17,2.36-3.56c-1.35-2.37-4.13-5.01-5.24-6.09
	c-2.94-2.58-5.21-4.82-7.27-6.81c-1.91-2.02-3.66-3.85-5.08-5.68l-1.03-1.38l-1.12-1.4c-0.73-0.94-1.43-1.91-2.14-2.91
	c-0.63-0.99-1.63-2.08-2.53-3.2c-0.96-1.13-1.84-2.31-3.04-3.6l-4-2.8l-2.05-1.39c-0.68-0.46-1.34-0.92-2.27-1.39l-6.96-3.76
	l-1.76-0.93c-0.68-0.31-1.48-0.6-2.21-0.91l-4.51-1.81c-5.29-2.53-13.83-4.52-21.32-6.71c-0.89-0.28-2.03-0.52-3.14-0.77l-3.31-0.75
	l-6.59-1.52l-6.56-1.54l-7.33-1.37l-14.67-2.82c-5.17-0.87-10.34-1.74-15.52-2.61c-3.7-0.42-7.24-0.82-10.65-1.21
	c0.58-0.53,1.15-1.07,1.74-1.6c1.58-1.78,3.21-3.62,4.86-5.48c0.32,0.09,0.64,0.13,0.95,0.16c1.51-1.39,2.96-2.75,4.3-4.07
	c-5.25,0.58-10.3,1.04-15.02,1.29c-1.55,0.68-3.21,1.29-5.1,1.75c0.65-0.46,1.47-1.03,2.34-1.64c-6.59,0.23-12.4,0.01-16.93-1.12
	c-3.74-1.39-8.74-1.58-14.49-0.9c-2.07,1.16-4.21,2.35-6.58,3.48c2.14-1.26,3.45-2.31,4.37-3.19c-3,0.44-6.2,1.12-9.49,1.95
	c1.06-1.98,1.39-3.72,6.84-6.89c-5.15,0.74-10.47,3.05-15.69,7.03c3.8-2.94,7.83-5.29,12.79-8.08c-1.79,0.69-3.16,0.87-3.09-0.11
	c0.69-0.97,1.67-1.8,2.81-2.55c-9.86,1.58-19.46,3.36-27.42,4.11c-3.98,0.34-7.55,0.44-10.55-0.07c-2.98-0.45-5.38-1.47-6.97-3.3
	c-1.84,0.99-3.66,2-5.45,3.07c-2.77,1.59-5.31,3.08-7.64,4.5c-2.35,1.36-4.48,2.64-6.42,3.81c-0.98,0.56-1.91,1.1-2.8,1.61
	c-0.83,0.44-1.85,1.06-2.9,1.76c-2.06,1.35-4.17,2.89-6.15,4.5c-3.99,3.21-7.4,6.85-9.73,9.2c-2.35,2.44-3.72,3.12-4.34,1.78
	c-2.89,6.22-5.16,15.12-4.67,24.15c0.13,2.22,0.35,4.45,0.74,6.65c0.42,2.21,0.95,4.45,1.61,6.58c0.68,2.08,1.48,4.21,2.36,6.14
	c0.88,1.86,1.87,3.78,2.89,5.46c4.14,6.79,8.75,11.33,12.74,14.7c0.96,0.79,1.94,1.56,2.93,2.3l1.38,1.03l0.99,0.81
	c1.1,0.89,2.21,1.56,3.16,2.19c0.95,0.64,1.75,1.29,2.35,1.91c3.35,4.53,3.12,8.33,0.35,11.73c1.94-0.37,4-0.73,6.24-1.16
	c-0.95,1.39-2.21,2.58-5.28,3.75c-4.72,1.51-3.3,0.46-4.12,0.07c-0.86,0.41-1.73,0.82-2.62,1.25l-0.6,0.44
	c0.96-0.04,2.5-0.29,4.51-0.7c4.15-1.11,8.69-2.15,12.92-3.07c-4.79,1.32-9.57,2.4-12.92,3.07c-2.16,0.57-4.22,1.17-6.15,1.77
	c-2.47,1.51-5.35,2.82-8.23,3.9c0.79-0.16,1.57-0.32,2.3-0.47c-0.76,0.17-1.6,0.35-2.48,0.54c-0.39,0.14-0.79,0.28-1.19,0.42
	c3.39-0.77,11.04-2.29,21.07-3.26c-16,3.62-25.63,5.11-29.04,5.54c-0.69,0.07-1.08,0.1-1.24,0.11c0.49-0.03,2.8-0.17,5.75-0.06
	c4.72,0.11,10.87,0.74,15.27,2.09c2.73,0.82,4.85,1.88,6.06,3.09c1.03,1.03,1.42,2.16,1.16,3.29c0.15,0.68-1.97,0.86-3.89,0.77
	c-1.95-0.08-3.75-0.39-3.75-0.39c-1.36,1.71-2.12,4.04-3.38,7.13c-0.62,1.5-1.32,3.22-2.21,5.09c-0.21,0.46-0.49,0.96-0.66,1.43
	c-2.81,2.11-6.72,5.01-11.35,9.83c-2.35,2.49-4.85,5.4-7.48,9.43c-1.22,1.85-2.59,4.28-3.71,6.58c-1.22,2.6-2.26,5.11-3.16,8.1
	c-3.67,11.83-3.21,24.93,1.48,36.6c1.17,2.97,2.46,5.41,3.95,7.92c0.77,1.3,1.45,2.26,2.22,3.35c0.75,1.05,1.56,2.11,2.35,3.07
	c0.74,0.87,1.5,1.72,2.28,2.56c0.78,0.83,1.61,1.68,2.3,2.31c1.43,1.33,3.06,2.73,4.36,3.68c5.63,4.21,10.22,6.28,14.18,7.82
	c3.93,1.48,7.41,2.36,10.43,2.94c1.63,0.14,3.26,0.28,4.9,0.41c3.27,0.28,6.56,0.58,9.8,0.75c3.25,0.19,6.56,0.47,9.8,0.59
	c17.45,0.95,35.27,1.51,54.78,3.95c14.02,1.77,26.82,2.88,38.9,4.12c4.8,0.49,9.49,0.99,14.08,1.55
	c-10.55,8.23-21.34,16.2-32.73,23.65c-6.73,4.47-18.96,4.86-25.81,9.04c-13.34,6.35-28.87,14.31-40.62,21
	c-11.74,6.69-19.65,12.29-17.1,14.49c4.47,6.33,19.29,10.28,39.27,9.88c19.95-0.31,45.02-5.14,68.83-15.22
	c12.46-4.76,24.81-9.81,37.1-15.18c3.06-1.36,6.15-2.68,9.2-4.09l4.59-2.09l2.33-1.07c1.21-0.58,2.49-1.23,3.84-1.96
	c2.72-1.48,5.75-3.29,9.23-5.9c3.45-2.65,7.47-6.08,11.68-11.66c1.09-1.51,2.06-2.86,3.1-4.63c1.04-1.8,1.96-3.41,2.88-5.54
	c0.9-2.04,1.69-4.06,2.36-6.4c0.68-2.26,1.21-4.59,1.55-7.03c0.73-4.86,0.74-9.63,0.09-14.47c-0.29-2.39-0.84-4.8-1.49-7.16
	c-0.65-2.36-1.49-4.54-2.43-6.75c-3.83-8.61-9.02-14.4-13.41-18.42c-4.46-4.03-8.4-6.54-11.86-8.53c-3.47-1.97-6.52-3.37-9.28-4.53
	l-5.51-2.23l-5.47-2.16l-5.46-1.94c-3.67-1.35-7.29-2.47-10.93-3.6c-3.23-1-6.45-1.92-9.66-2.81c2.52-0.75,5.05-1.5,7.56-2.25
	c3.52-1.03,6.76-2.08,10.08-3.13c3.34-1.07,6.67-2.13,9.99-3.19l4.99-1.62l4.67-1.65c3.13-1.11,6.26-2.23,9.38-3.33l4.72-1.69
	c1.46-0.57,2.67-1.16,4.01-1.75l7.89-3.56c5.64-2.41,9.57-4.78,14.07-7.22c1.24-3.19,1.49-6.21,1.77-8.89
	c12.49-8.77,19.95-18.71,25.58-28.02c1.51-2.36,2.64-4.66,3.91-6.97c0.63-1.18,1.26-2.23,1.8-3.58c0.55-1.34,1.05-2.86,1.45-4.63
	c0.4-1.75,0.67-3.85,0.64-6.24C988.73,723.79,988.18,721.11,987.37,718.99z M751.24,732.56c-0.1-0.06-0.19-0.13-0.29-0.19
	c-0.97-0.62-2.15-1.36-4.66-1.12c0.63-0.26,1.22-0.51,1.79-0.77c0.12,0.07,0.25,0.14,0.37,0.21c1.19,0.74,2.17,1.38,4.83,1.12
	C752.57,732.06,751.91,732.31,751.24,732.56z M877.78,555.64c-2.67,0.41-5.32,0.82-7.89,1.21c0.26,0.2,0.5,0.41,0.72,0.66
	C873.04,556.88,875.46,556.25,877.78,555.64z M691.88,686.95c-0.37-4.16-0.48-8.94,0.12-14.14c0.6-5.11,1.89-10.53,3.74-15.32
	c1.83-4.77,4.17-9.08,6.55-12.58c2.36-3.47,4.78-6.29,7.04-8.6c2.26-2.3,4.32-4.05,6.21-5.51c1.84-1.42,3.65-2.66,4.84-3.28
	c1.33-0.7,2.64-1.37,3.88-1.97c1.58-2.27,3.4-4.52,5.36-6.8c1.94-2.33,4.05-4.56,6.21-6.82c-4.45,1.77-8.96,3.85-13.55,6.08
	c-0.99,1.22-2.08,2.55-3.21,3.94c-1.19,1.44-2.09,2.54-4.13,4.87c-0.8,0.07-1.69,0.23-2.67,0.51c0.1-0.58,0.36-1.32,0.87-2.27
	c0.26-0.48,0.65-1.07,1.06-1.66c0.38-0.52,0.82-1.12,1.34-1.84c-0.18,0.1-0.35,0.19-0.52,0.29c-2.95,1.78-7.33,4.85-12.57,10.36
	c1.94-1.37,3.69-2.38,5.28-3.14c-3.17,3.39-6.97,7.7-10.76,14.11c-3.74,6.28-7.21,14.74-8.52,23.83c-0.67,4.52-0.83,8.96-0.59,13.02
	c0.29,4.04,0.82,7.67,1.69,10.9c1.66,6.53,3.98,10.73,5.63,12.89C694.71,701.2,692.74,695.46,691.88,686.95z M899.63,603.6
	l16.06-4.08l-21.41,9.88l51.28-13.48l-12.77-4.3l-6.16,2.84l-9.17-3.16l-11.72,8.07l-8.7-5.23l-9.5,6.54l15.86,0.3L899.63,603.6z
	 M861.67,616.66c4.57,1.23,10.51,1.51,17.19,1.28c3.09-2.08,7.38-4.81,11.75-6.83l3.68-1.7l-3.97,1.04
	c-1.01,0.27-1.81,0.81-3.86,2.22l3.71-2.55l9.46-6.52l-11.11,2.82c-6.14,1.56-14.46,4.72-20.45,7.7l18.28-12.59l1.2-0.83l-1.58-0.03
	c-1.7-0.03-3.52,0-5.38,0.07c-2.79,0.88-5.66,1.88-8.07,2.84l3.33-2.3c-12.82,4.3-19.81,9.46-28.78,13.97
	C852.89,614.87,857.93,615.19,861.67,616.66z M814.38,614.54c1.74-0.55,3.49-1.11,5.25-1.67c-1.05-1.83-1.49-4.1-1.13-6.94
	c2.25-2.75-1.23-2.22-7.91,0.13c-6.68,2.36-16.6,6.64-27.07,11.79C784.8,622.25,793.04,621.45,814.38,614.54z"/>
<path class="st1" d="M198.54,877.39c0.17,0.04,0.33,0.07,0.5,0.12l-0.68-10.24c-0.16,0-0.33-0.04-0.5-0.06L198.54,877.39z
	 M197.63,856.26l0.73,11c2.61,0.08,4.57-1.67,6.81-2.24c-1.63-2.79-2.99-6.02-3.88-10c-1.11-4.04-2.67-7.66-4.48-11.05l0.71,10.79
	c0.62,0.04,1.23,0.03,1.78-0.09L197.63,856.26z M199.26,877.56c-0.08-0.03-0.15-0.03-0.22-0.05l0.02,0.29L199.26,877.56z
	 M197.29,867.14l0.67,10.12c0.15,0.02,0.32,0.08,0.48,0.11l-0.67-10.17C197.61,867.18,197.45,867.18,197.29,867.14z M198.24,878.72
	c0.09,0.01,0.2,0.04,0.29,0.05l-0.02-0.36L198.24,878.72z M198.63,878.8c0.16,0.02,0.33,0.05,0.5,0.09l-0.07-1.09l-0.46,0.53
	L198.63,878.8z M442.01,874.78c-0.33-2.66-0.77-5.32-1.36-7.95c-0.62-2.64-1.36-5.26-2.25-7.85c-0.93-2.67-1.99-5.23-3.15-7.66
	c-4.67-9.74-10.52-16.83-15.77-22.02c-1.99-1.86-3.94-3.46-5.9-4.93c-16.34-12.08-33.66-14.68-44.93-15.1
	c-11.47-0.36-18.01,0.68-21.74-1.11c-2.82-1.69-5.42-3.34-7.3-5.02c-4.55-3.76-9.06-7.5-13.5-11.18c-1.14,2.07-2.35,4.12-3.41,6.2
	c-8.32-4.07-19.31,2.16-28.29,4.86l-0.08,0.03c1.27-7.11-4.39-6.99-5.81-6.96c-7.08,0.14-9.98-3.34-15.72-6.76
	c-1.1-0.25-2.2-0.41-3.3-0.53c-5.89-0.62-11.74,0.24-17.67-2.44c-17.04,2.5-12.43-26.38-23.46-22.69c-2.74,1.21-5.29,1.8-7.73,2
	c-2.96,0.24-5.75-0.13-8.48-0.85c-1.46,1.08-3.2,2.18-4.65,2.51c-4.23,1.78-3.71-3.18-5.69-3.53l0.86,1.41
	c-0.45-0.15-0.9-0.24-1.34-0.37c2.06,5.58,3.43,11.45,3.41,17.91c-0.01,2.55-0.22,5.19-0.72,7.95c-0.52,4.96,6.89,11.31,10.34,16.97
	c2.14,9.54-1.98,16.61-6.12,23.38c-0.61,1.39-1.23,2.8-1.86,4.24c-0.08-0.29-0.16-0.52-0.25-0.74c-0.54,0.92-1.07,1.85-1.55,2.78
	c1.49,2.21,2.93,4.46,4.26,6.82c0.49,0.01,1.02,0.2,1.59,0.68c-0.23,0.21-0.51,0.47-0.81,0.74c1.85,3.46,3.45,7.15,4.59,11.28
	c0.89,3.98,2.24,7.21,3.88,10c0.68-0.17,1.39-0.24,2.16-0.1c-0.72,0.17-1.19,0.58-1.53,1.12c0.86,1.36,1.79,2.6,2.76,3.79
	c-0.5,1.7-0.79,3.62-2.57,4.03c1.45,2.38,3.09,2.98,4.91,1.85c-1.33,0.86-2.65,1.07-4.25,1.31c0.55,0.3,0.92,0.98,0.8,2.14
	c-0.29,0.74-0.63,1.13-1.01,1.32c5.52,8.71,10.53,17.89,11.05,31.33l1.57,0.96c6.39,3.96,8.5,9.15,8.36,15.26
	c3.86,0.93,7.97,2.12,10.78,4.53c4.61,5.1,8.73,11.47,12.94,17.87c1.02-1.09,2-2.26,2.93-3.52c2.03,2.66,4.01,5.06,4.43,7.81
	c-0.39,3.68-2.38,1.52-4.31,1.02l0.59,2.77l0.68,0.9c1.15-0.3,2.29-1.07,3.3-2.21c1.17-2.83,2.34-5.65,3.37-8.14
	c-0.35,3.33-1.68,6.23-3.37,8.14c-0.58,1.47-1.12,2.97-1.56,4.45c2.55,3.18,5.26,6.11,8.23,8.56c0.58-0.41,1.16-0.84,1.69-1.34
	c-0.44,0.44-0.95,0.96-1.49,1.5l1.23,0.98c2.25-2.13,6.74-6.38,11.23-10.64c3.12,9.58,6.76,14.3,10.73,15.82
	c7.39,2.84,15.95-5.39,24.56-14.05c2.64-2.66,5.28-5.36,7.9-7.78c0.27-0.25,0.53-0.46,0.8-0.7c0.21,0.23,0.42,0.47,0.65,0.67
	c7.51,7.05,17.81,12.35,27.88,14.16c10.04,1.84,19.83,0.14,25.49-5.85c6.79-5.28,13.44-10.81,19.94-16.74
	c3.24-2.98,6.46-6.04,9.62-9.24l2.36-2.42l1.18-1.23l0.59-0.62c0.18-0.18,0.39-0.41,0.72-0.8c2.28-2.72,5.08-6.22,8.27-11.61
	c2.23-3.8,4.67-8.51,6.84-14.91c2.13-6.36,4.04-14.69,3.94-24.77C442.45,879.93,442.3,877.38,442.01,874.78z M265.51,937.16
	c-1.57-0.95-3.19-2.16-4.43-0.98c0.07-0.62,0.06-1.2,0.09-1.79c1.58,0.95,3.19,2.17,4.44,0.99
	C265.54,935.98,265.55,936.56,265.51,937.16z M368.45,884.28l0.03-0.01l0.03-0.01l0.03-0.01l0.01,0
	C368.51,884.25,368.49,884.26,368.45,884.28z M203.06,883.05c-0.73-1.25-1.49-2.46-2.27-3.65c-0.56-0.23-1.12-0.39-1.66-0.51
	l0.53,8.03L203.06,883.05z M197.17,856.71l-0.09,0.08l0.69,10.41c0.03,0,0.06,0.01,0.09,0.01L197.17,856.71z M199.84,889.63
	l0.71,10.64l0.14,0.22c1.11-1.18,2.73-2.64,4.34-2.51c-0.99-1.33-0.99-1.33-2.01-0.17c1.02-1.16,3.06-3.49,3.06-3.49
	C205.38,891.55,202.51,889.93,199.84,889.63z M199.2,887.44l0.14,2.14c0.16,0.01,0.33,0.04,0.5,0.06l-0.18-2.72L199.2,887.44z
	 M210.32,922.49c0.6-1.24,1.19-2.46,1.78-3.68c-0.11-0.21-0.21-0.43-0.32-0.72C211.29,919.59,210.8,921.06,210.32,922.49z
	 M197.53,854.77c-0.17-0.01-0.33-0.01-0.5-0.03l0.13,1.96l0.47-0.44L197.53,854.77z M236.36,937.79c-1.16,1.81-2.51,3.34-3.88,4.8
	l3.33,4.99c0.66-0.82,1.45-1.65,2.24-2.44l0.34,2.09c-0.11,0.96-0.28,1.9-0.92,2.76l0.13,0.17c0.65,0.91,1.3,1.82,1.95,2.73
	l-0.6-2.77c1.92,0.5,3.92,2.65,4.3-1.02c-0.53-3.43-3.46-6.3-5.92-9.83C237,938.79,236.67,938.3,236.36,937.79z M214.01,884.62
	l-1.57-0.96c0.11,2.94,0.02,6.07-0.34,9.46c-1.72,4.39,3.95,5.23,10.27,6.76C222.51,893.76,220.39,888.58,214.01,884.62z
	 M198.53,878.78l0.58,8.76l0.09-0.1l-0.57-8.65C198.6,878.79,198.56,878.78,198.53,878.78z M198.54,877.39
	c-0.03-0.01-0.06-0.02-0.1-0.02l0.07,1.05l0.09-0.1L198.54,877.39z"/>
</svg>
