<?xml version="1.0" encoding="utf-8"?>
<!-- Generator: Adobe Illustrator 24.0.1, SVG Export Plug-In . SVG Version: 6.00 Build 0)  -->
<svg version="1.1" id="Layer_1" xmlns="http://www.w3.org/2000/svg" xmlns:xlink="http://www.w3.org/1999/xlink" x="0px" y="0px"
	 viewBox="0 0 50 50" style="enable-background:new 0 0 50 50;" xml:space="preserve">
<style type="text/css">
	.st0{fill:none;stroke:#1E1131;}
	.st1{fill:none;stroke:#1E1131;stroke-linejoin:bevel;}
</style>
<path id="Path-8" class="st0" d="M15,17.9c5-3.7,10,0,9,3.7s-3,6.5-3,7.4c0,0.6,2,0.6,6,0"/>
<path id="Path-9" class="st0" d="M36,18c-3-3-7-2-8,0"/>
<path id="Path-11" class="st0" d="M13,22c2,2,5,2,9,0"/>
<path id="Path-12" class="st0" d="M37,23c-2.7,0.7-5.3,0.3-8-1"/>
<path id="Path-13" class="st1" d="M20,35c2.8-2,4.4-2.7,5-2c0.6-0.7,2.2,0,5,2c-2.2,0-3.9,0-5,0S22.2,35,20,35z"/>
<path id="Path-14" class="st1" d="M20,35h10c-0.6,1.3-2.2,2-5,2S20.6,36.3,20,35z"/>
</svg>
