<?xml version="1.0" encoding="UTF-8"?>
<svg width="50px" height="50px" viewBox="0 0 50 50" version="1.1" xmlns="http://www.w3.org/2000/svg" xmlns:xlink="http://www.w3.org/1999/xlink">
    <title>icon-yesno-50_el-d</title>
    <g id="icon-yesno-50_el-d" stroke="none" stroke-width="1" fill="none" fill-rule="evenodd">
        <polygon id="Star" stroke="#D2A17D" points="25 39.4 23.6055081 40.9391152 22.4994662 39.1812316 20.8588953 40.4548132 20.0749099 38.5315737 18.2381078 39.5009246 17.8 37.4707658 15.822777 38.1064327 15.7438584 36.03104 13.6862915 36.3137085 13.96896 34.2561416 11.8935673 34.177223 12.5292342 32.2 10.4990754 31.7618922 11.4684263 29.9250901 9.54518678 29.1411047 10.8187684 27.5005338 9.06088483 26.3944919 10.6 25 9.06088483 23.6055081 10.8187684 22.4994662 9.54518678 20.8588953 11.4684263 20.0749099 10.4990754 18.2381078 12.5292342 17.8 11.8935673 15.822777 13.96896 15.7438584 13.6862915 13.6862915 15.7438584 13.96896 15.822777 11.8935673 17.8 12.5292342 18.2381078 10.4990754 20.0749099 11.4684263 20.8588953 9.54518678 22.4994662 10.8187684 23.6055081 9.06088483 25 10.6 26.3944919 9.06088483 27.5005338 10.8187684 29.1411047 9.54518678 29.9250901 11.4684263 31.7618922 10.4990754 32.2 12.5292342 34.177223 11.8935673 34.2561416 13.96896 36.3137085 13.6862915 36.03104 15.7438584 38.1064327 15.822777 37.4707658 17.8 39.5009246 18.2381078 38.5315737 20.0749099 40.4548132 20.8588953 39.1812316 22.4994662 40.9391152 23.6055081 39.4 25 40.9391152 26.3944919 39.1812316 27.5005338 40.4548132 29.1411047 38.5315737 29.9250901 39.5009246 31.7618922 37.4707658 32.2 38.1064327 34.177223 36.03104 34.2561416 36.3137085 36.3137085 34.2561416 36.03104 34.177223 38.1064327 32.2 37.4707658 31.7618922 39.5009246 29.9250901 38.5315737 29.1411047 40.4548132 27.5005338 39.1812316 26.3944919 40.9391152"></polygon>
    </g>
</svg>