<?xml version="1.0" encoding="UTF-8"?>
<svg width="50px" height="50px" viewBox="0 0 50 50" version="1.1" xmlns="http://www.w3.org/2000/svg" xmlns:xlink="http://www.w3.org/1999/xlink">
    <title>icon-yesno-50_base</title>
    <g id="icon-yesno-50_base" stroke="none" stroke-width="1" fill="none" fill-rule="evenodd">
        <g id="icon" transform="translate(13.192388, 13.000000)">
            <path d="M12,0 L12,9 C10,11.3403594 9,13.0070261 9,14 C9,14.9929739 10,15.3263072 12,15 L11,18 L12,18 L12,24 C5.372583,24 0,18.627417 0,12 C0,5.372583 5.372583,0 12,0 Z" id="Combined-Shape" fill="#E6F3E8"></path>
            <path d="M12,2 C17.5228475,2 22,6.4771525 22,12 C22,17.5228475 17.5228475,22 12,22" id="Path" stroke="#D2A17D"></path>
            <path d="M12,24 C5.372583,24 0,18.627417 0,12 C0,5.372583 5.372583,0 12,0" id="Path" stroke="#E6F3E8"></path>
            <path d="M9,18 C9.55228475,18 12,19 15,17" id="Path-18" stroke="#E6F3E8"></path>
            <path d="M9,18 C9.27882442,18 10.0407559,18.2548799 11.1129615,18.2499288" id="Path-18" stroke="#3B1537"></path>
            <line x1="14" y1="16" x2="16" y2="18" id="Path-19" stroke="#E6F3E8"></line>
            <path d="M18.428009,8.04799401 C16.7675056,6.38749064 14.5535011,6.94099176 14,8.04799401" id="Path-9" stroke="#E6F3E8"></path>
            <path d="M18.9815101,10.8154996 C17.5055071,11.1845004 16.0295041,11 14.5535011,10.2619985" id="Path-12" stroke="#E6F3E8"></path>
            <path d="M9,8 C7.66666667,6.66666667 6,6.66666667 4,8" id="Path-20" stroke="#3B1537"></path>
            <path d="M8,10 C6.66666667,10.6666667 5.33333333,10.6666667 4,10" id="Path-21" stroke="#3B1537"></path>
        </g>
    </g>
</svg>